<svg width="172" height="18" viewBox="0 0 172 18" fill="none" xmlns="http://www.w3.org/2000/svg">
<path d="M8.07097 16.2387H2.45752V17.8426H8.07097V16.2387Z" fill="#0037FF"/>
<path d="M13.7103 16.2387H8.0968V17.8426H13.7103V16.2387Z" fill="#FC7F10"/>
<path d="M8.0968 13.4191C4.88911 13.4191 2.35401 8.9697 2.06945 2.86474C2.04359 2.37324 2.22466 1.88174 2.56095 1.54545C2.9231 1.1833 3.38874 0.976349 3.90611 0.976349H8.0968V2.58019H3.90611C3.8285 2.58019 3.77676 2.60606 3.72503 2.6578C3.69916 2.68367 3.6733 2.7354 3.6733 2.81301C3.90612 7.77975 5.89798 11.8411 8.0968 11.8411V13.4191Z" fill="#0037FF"/>
<path d="M2.45752 17.8426V16.2387C4.50113 16.2387 6.18257 14.5831 6.18257 12.5137H7.78641C7.78641 15.4627 5.40652 17.8426 2.45752 17.8426Z" fill="#0037FF"/>
<path d="M13.7103 17.8426C10.7613 17.8426 8.38135 15.4627 8.38135 12.5137H9.98519C9.98519 14.5573 11.6408 16.2387 13.7103 16.2387V17.8426Z" fill="#FC7F10"/>
<path d="M8.0968 13.4191V11.8152C10.2956 11.8152 12.2875 7.75387 12.5203 2.78713C12.5203 2.73539 12.4944 2.68366 12.4686 2.63192C12.4168 2.58018 12.3651 2.55431 12.2875 2.55431H8.0968V0.95047H12.2875C12.8049 0.95047 13.2705 1.15742 13.6327 1.51957C13.9689 1.88173 14.15 2.34736 14.1241 2.83886C13.8396 8.99555 11.3045 13.4191 8.0968 13.4191Z" fill="#FFCE00"/>
<path d="M3.25942 9.82334C1.47449 9.82334 0 8.37471 0 6.56392C0 4.98594 1.13821 3.61492 2.71619 3.35623L2.97487 4.93421C2.06948 5.08942 1.4745 5.91721 1.60385 6.8226C1.75906 7.728 2.58684 8.32297 3.49224 8.19363C3.49224 8.19363 3.49223 8.19363 3.5181 8.19363L3.77679 9.77161C3.62158 9.79747 3.4405 9.82334 3.25942 9.82334Z" fill="#0037FF"/>
<path d="M12.9342 9.82335C12.7531 9.82335 12.572 9.79748 12.3909 9.77162L12.6496 8.19364C13.555 8.34885 14.4087 7.75388 14.538 6.84848C14.6932 5.94309 14.0983 5.08943 13.1929 4.96009L13.4515 3.38211C15.2365 3.69253 16.4264 5.37398 16.116 7.13303C15.8573 8.68514 14.5122 9.82335 12.9342 9.82335Z" fill="#FFCE00"/>
<path d="M26.6703 12.2809C26.6186 10.1596 28.2742 8.37472 30.3954 8.29712C32.0251 8.32299 33.422 9.4612 33.7583 11.0392H32.5166C32.2838 10.0562 31.4042 9.35773 30.3954 9.35773C28.7915 9.59054 27.6533 11.065 27.8861 12.6689C28.0672 13.9882 29.1019 15.0229 30.3954 15.1781C31.4301 15.204 32.3355 14.5055 32.5683 13.4967H33.81C33.4478 15.1005 32.0251 16.2387 30.3954 16.2387C28.2742 16.1611 26.6186 14.4021 26.6703 12.2809Z" fill="white"/>
<path d="M34.5085 13.3932C34.6119 11.9187 35.8795 10.8064 37.354 10.9098C38.8285 11.0133 39.9408 12.2809 39.8374 13.7554C39.7339 15.1523 38.5698 16.2646 37.1729 16.2646C35.6726 16.2646 34.4826 15.0229 34.4826 13.5484C34.4826 13.4708 34.5085 13.4449 34.5085 13.3932ZM38.725 13.3932C38.5957 12.5396 37.7938 11.9446 36.9401 12.0739C36.0864 12.2033 35.4915 13.0052 35.6208 13.8588C35.7243 14.6349 36.3969 15.204 37.1729 15.204C38.1042 15.1264 38.8026 14.3245 38.725 13.3932Z" fill="white"/>
<path d="M40.898 10.5994H41.6999L41.9586 11.1685C42.6312 10.4183 43.7694 10.3407 44.5196 10.9875C44.6489 11.1168 44.7783 11.2461 44.8817 11.4013C45.2698 10.8581 45.8906 10.5477 46.5632 10.5218C47.7014 10.5736 48.5551 11.5307 48.5033 12.6689C48.5033 12.7206 48.5033 12.7724 48.4775 12.8241V16.187H47.3651V12.8241C47.4686 12.2291 47.0547 11.6859 46.4856 11.5824C45.9165 11.479 45.3474 11.8928 45.2439 12.462C45.218 12.5654 45.218 12.6948 45.2439 12.7982V16.1611H44.1316V12.7982C44.2351 12.2033 43.8212 11.66 43.252 11.5566C42.6571 11.4531 42.1138 11.867 42.0103 12.4361C41.9845 12.5396 41.9845 12.6689 42.0103 12.7724V16.1353H40.898V10.5994Z" fill="white"/>
<path d="M49.7967 10.5994H50.5986L50.8573 11.1685C51.5299 10.4183 52.6681 10.3407 53.4183 10.9875C53.5476 11.1168 53.677 11.2461 53.7804 11.4013C54.1685 10.8581 54.7893 10.5477 55.4619 10.5218C56.6001 10.5736 57.4538 11.5307 57.402 12.6689C57.402 12.7206 57.402 12.7724 57.3762 12.8241V16.187H56.2638V12.8241C56.3673 12.2291 55.9534 11.6859 55.3843 11.5824C54.7893 11.479 54.2461 11.8928 54.1426 12.462C54.1167 12.5654 54.1167 12.6948 54.1426 12.7982V16.1611H53.0302V12.7982C53.1337 12.2033 52.7199 11.66 52.1507 11.5566C51.5816 11.4531 51.0125 11.867 50.909 12.4361C50.8832 12.5396 50.8832 12.6689 50.909 12.7724V16.1353H49.7967V10.5994Z" fill="white"/>
<path d="M58.3851 13.3932C58.2557 11.9446 59.3163 10.677 60.765 10.5477C62.2136 10.4183 63.4811 11.4789 63.6105 12.9276C63.6363 13.0828 63.6363 13.238 63.6105 13.3932C63.6105 13.5484 63.5846 13.7295 63.5588 13.8847H59.575C59.7044 14.7125 60.4545 15.3075 61.3082 15.1781C61.7221 15.1264 62.0842 14.8936 62.3171 14.5831H63.507C63.1707 15.6179 62.1619 16.2905 61.0754 16.2646C59.575 16.2646 58.3851 15.0229 58.4109 13.5484C58.3851 13.4708 58.3851 13.4449 58.3851 13.3932ZM62.5499 12.9534C62.4723 12.1515 61.7997 11.5565 60.9978 11.5824C60.2476 11.6083 59.6267 12.2032 59.575 12.9534H62.5499Z" fill="white"/>
<path d="M64.6711 10.5994H65.473L65.7317 11.1685C66.0939 10.7546 66.6112 10.5477 67.1545 10.5477C67.2838 10.5477 67.4131 10.5735 67.5166 10.5994V11.7117C67.3873 11.6859 67.258 11.66 67.1545 11.66C66.4043 11.66 65.7834 12.2809 65.7834 13.031V16.2129H64.6711V10.5994Z" fill="white"/>
<path d="M68.0857 13.3932C68.0081 11.8928 69.1463 10.6253 70.6208 10.5477C70.6725 10.5477 70.7243 10.5477 70.7501 10.5477C71.9918 10.5477 73.0266 11.4531 73.2335 12.6689H72.0436C71.9142 12.048 71.371 11.6083 70.7501 11.6083C69.7671 11.7635 69.0687 12.6947 69.2239 13.6777C69.3533 14.4797 69.9741 15.1005 70.7501 15.204C71.371 15.204 71.9142 14.7642 72.0436 14.1434H73.2335C73.0266 15.3592 71.9918 16.2387 70.7501 16.2646C69.2498 16.2387 68.0598 15.0229 68.0857 13.5484C68.0857 13.4708 68.0857 13.4449 68.0857 13.3932Z" fill="white"/>
<path d="M73.932 13.3932C73.8027 11.9446 74.8633 10.677 76.3119 10.5477C77.7605 10.4183 79.0281 11.4789 79.1574 12.9276C79.1833 13.0828 79.1833 13.238 79.1574 13.3932C79.1574 13.5484 79.1316 13.7295 79.1057 13.8847H75.1219C75.2513 14.7125 76.0015 15.3075 76.8551 15.1781C77.269 15.1264 77.6312 14.8936 77.864 14.5831H79.054C78.7177 15.6179 77.7088 16.2905 76.6223 16.2646C75.122 16.2646 73.932 15.0229 73.932 13.5484C73.932 13.4708 73.932 13.4449 73.932 13.3932ZM78.0968 12.9534C78.0192 12.1515 77.3466 11.5565 76.5447 11.5824C75.7945 11.6083 75.1737 12.2032 75.1219 12.9534H78.0968Z" fill="white"/>
<path d="M82.8049 8.323H85.6763C87.0473 8.323 88.1596 9.43534 88.1596 10.8064C88.1596 12.1774 87.0473 13.2897 85.6763 13.2897H83.9948V16.1611H82.8049V8.323ZM85.6763 12.1774C86.4264 12.1515 87.0214 11.5048 86.9697 10.7546C86.9438 10.0562 86.3747 9.48708 85.6763 9.46121H83.9948V12.2033H85.6763V12.1774Z" fill="white"/>
<path d="M88.7287 14.5573C88.7287 13.4449 89.4789 12.6947 92.2209 12.6947V12.5137C92.2209 11.9446 91.8588 11.5824 91.1603 11.5824C90.4102 11.5824 90.0998 11.8928 90.048 12.255H88.9357C88.9874 11.272 89.8152 10.5218 91.1862 10.5218C92.2985 10.4442 93.2557 11.2461 93.3592 12.3584C93.3592 12.4102 93.3592 12.4619 93.3592 12.5137V16.187H92.5572L92.2986 15.6179C91.8847 16.0576 91.2897 16.2646 90.6947 16.2387C89.4013 16.2387 88.7287 15.5403 88.7287 14.5573ZM92.1951 13.9882V13.6777C90.2032 13.6777 89.8411 14.0399 89.8411 14.609C89.8411 14.9194 90.1515 15.2298 90.7206 15.2298C91.4449 15.3333 92.1175 14.8159 92.1951 14.0916C92.1951 14.0399 92.1951 14.014 92.1951 13.9882Z" fill="white"/>
<path d="M94.6267 10.5736H95.4286L95.6873 11.1427C96.0495 10.7288 96.5668 10.5218 97.1101 10.5218C97.2394 10.5218 97.3688 10.5477 97.4722 10.5736V11.6859C97.3429 11.66 97.2135 11.6342 97.1101 11.6342C96.3599 11.6342 95.7391 12.255 95.7391 13.0052V16.187H94.6267V10.5736Z" fill="white"/>
<path d="M98.8433 14.2986V11.6342H97.8603V10.5736H98.3C98.6881 10.5994 99.0244 10.289 99.0502 9.8751C99.0502 9.84924 99.0502 9.84923 99.0502 9.82337V9.07318H99.9815V10.5736H101.223V11.6342H99.9815V14.2986C99.9815 14.7642 100.344 15.1523 100.809 15.1781C100.835 15.1781 100.835 15.1781 100.861 15.1781C100.99 15.1781 101.12 15.1523 101.223 15.1264V16.1094C101.016 16.187 100.809 16.2387 100.602 16.2387C99.6452 16.2387 98.8433 15.4627 98.8433 14.4797C98.8433 14.4021 98.8433 14.3503 98.8433 14.2986Z" fill="white"/>
<path d="M102.413 10.5735H103.215L103.474 11.1427C103.888 10.7029 104.483 10.4959 105.078 10.5218C106.345 10.5477 107.328 11.5824 107.328 12.8241C107.328 12.85 107.328 12.9017 107.328 12.9276V16.1611H106.216V12.9276C106.242 12.1774 105.673 11.5824 104.922 11.5565C104.172 11.5307 103.577 12.0998 103.551 12.85C103.551 12.8758 103.551 12.9017 103.551 12.9276V16.1611H102.439V10.5735H102.413Z" fill="white"/>
<path d="M108.311 13.3673C108.182 11.9187 109.242 10.6511 110.691 10.5218C112.14 10.3924 113.407 11.453 113.537 12.9017C113.562 13.0569 113.562 13.2121 113.537 13.3673C113.537 13.5225 113.511 13.7036 113.485 13.8588H109.501C109.63 14.6866 110.381 15.2816 111.234 15.1522C111.648 15.1005 112.01 14.8677 112.243 14.5573H113.433C113.097 15.592 112.088 16.2646 111.001 16.2387C109.501 16.2387 108.311 14.997 108.337 13.5225C108.311 13.4449 108.311 13.4191 108.311 13.3673ZM112.476 12.9275C112.398 12.1256 111.726 11.5307 110.924 11.5565C110.174 11.5824 109.553 12.1774 109.501 12.9275H112.476Z" fill="white"/>
<path d="M114.597 10.5736H115.399L115.658 11.1427C116.02 10.7288 116.537 10.5218 117.081 10.5218C117.21 10.5218 117.339 10.5477 117.443 10.5736V11.6859C117.313 11.66 117.184 11.6342 117.081 11.6342C116.33 11.6342 115.71 12.255 115.71 13.0052V16.187H114.597V10.5736Z" fill="white"/>
<path d="M27.1619 5.58094C27.1619 5.55507 27.1619 5.55507 27.1877 5.5292L28.3259 4.41686C28.4294 4.33926 28.6881 4.08057 28.6881 3.82189C28.6881 3.53734 28.4553 3.30452 28.1449 3.30452C27.8603 3.30452 27.6275 3.51147 27.6275 3.77015C27.6275 3.77015 27.6275 3.79602 27.6016 3.79602H27.2395C27.2395 3.79602 27.2136 3.79602 27.2136 3.77015C27.2136 3.30452 27.6016 2.91649 28.0673 2.94236C28.0931 2.94236 28.119 2.94236 28.119 2.94236C28.5846 2.89062 29.0244 3.25278 29.0503 3.74428C29.0503 3.77015 29.0503 3.79602 29.0503 3.82189C29.0244 4.15818 28.8433 4.4686 28.5846 4.67555L27.6792 5.50334V5.5292C27.6792 5.5292 27.6792 5.5292 27.7051 5.5292H29.0244C29.0244 5.5292 29.0503 5.5292 29.0503 5.55507V5.8655C29.0503 5.8655 29.0503 5.89136 29.0244 5.89136H27.1619C27.1619 5.89136 27.136 5.89136 27.136 5.8655L27.1619 5.58094Z" fill="#FFCE00"/>
<path d="M30.8093 5.94309C29.9815 5.94309 29.697 5.29638 29.697 4.44272C29.697 3.58906 29.9556 2.94235 30.8093 2.94235C31.6371 2.94235 31.8958 3.58906 31.8958 4.44272C31.8958 5.29638 31.6371 5.94309 30.8093 5.94309ZM30.1885 5.06356C30.1885 5.08943 30.2143 5.08943 30.2402 5.06356L31.2491 3.51146V3.48559C31.1456 3.38212 30.9904 3.33038 30.8352 3.33038C30.3178 3.33038 30.1367 3.74427 30.1367 4.46859C30.1109 4.64967 30.1367 4.85662 30.1885 5.06356ZM31.4301 3.82188L31.4043 3.79601C31.4043 3.79601 31.4043 3.79601 31.3784 3.79601L30.3695 5.37399V5.39985C30.473 5.50333 30.6541 5.58093 30.8093 5.55506C31.3008 5.55506 31.5078 5.14117 31.5078 4.41685C31.5078 4.23577 31.4819 4.02883 31.4301 3.82188Z" fill="#FFCE00"/>
<path d="M32.7494 5.58094C32.7494 5.55507 32.7494 5.55507 32.7753 5.5292L33.9135 4.41686C34.017 4.33926 34.2757 4.08057 34.2757 3.82189C34.2757 3.53734 34.0429 3.30452 33.7324 3.30452C33.7324 3.30452 33.7324 3.30452 33.7066 3.30452C33.422 3.30452 33.1892 3.51147 33.1892 3.77015C33.1892 3.77015 33.1892 3.79602 33.1633 3.79602H32.8012C32.8012 3.79602 32.7753 3.79602 32.7753 3.77015C32.7753 3.30452 33.1633 2.91649 33.629 2.94236C33.6548 2.94236 33.6807 2.94236 33.6807 2.94236C34.1463 2.89062 34.5861 3.25278 34.612 3.74428C34.612 3.77015 34.612 3.79602 34.612 3.82189C34.5861 4.15818 34.405 4.4686 34.1463 4.67555L33.2409 5.50334V5.5292C33.2409 5.5292 33.2409 5.5292 33.2668 5.5292H34.5861C34.5861 5.5292 34.612 5.5292 34.612 5.55507V5.8655C34.612 5.8655 34.612 5.89136 34.5861 5.89136H32.7236C32.7236 5.89136 32.6977 5.89136 32.6977 5.8655L32.7494 5.58094Z" fill="#FFCE00"/>
<path d="M36.3968 5.94309C35.5691 5.94309 35.2845 5.29638 35.2845 4.44272C35.2845 3.58906 35.5432 2.94235 36.3968 2.94235C37.2246 2.94235 37.4833 3.58906 37.4833 4.44272C37.4833 5.29638 37.2246 5.94309 36.3968 5.94309ZM35.7501 5.06356C35.7501 5.08943 35.776 5.08943 35.8019 5.06356L36.8107 3.51146V3.48559C36.7073 3.38212 36.5521 3.33038 36.3968 3.33038C35.8795 3.33038 35.6984 3.74427 35.6984 4.46859C35.6984 4.64967 35.7243 4.85662 35.7501 5.06356ZM36.9918 3.82188L36.9659 3.79601C36.9659 3.79601 36.9659 3.79601 36.9401 3.79601L35.9312 5.37399V5.39985C36.0347 5.50333 36.2158 5.58093 36.371 5.55506C36.8625 5.55506 37.0694 5.14117 37.0694 4.41685C37.0694 4.23577 37.0435 4.02883 36.9918 3.82188Z" fill="#FFCE00"/>
<path d="M41.3895 5.58094C41.3895 5.55507 41.3895 5.55507 41.4154 5.5292L42.5536 4.41686C42.6571 4.33926 42.9158 4.08057 42.9158 3.82189C42.9158 3.53734 42.6829 3.30452 42.3725 3.30452C42.088 3.30452 41.8552 3.51147 41.8552 3.77015C41.8552 3.77015 41.8552 3.79602 41.8293 3.79602H41.4671C41.4671 3.79602 41.4413 3.79602 41.4413 3.77015C41.4413 3.30452 41.8293 2.91649 42.2949 2.94236C42.3208 2.94236 42.3467 2.94236 42.3467 2.94236C42.8123 2.89062 43.252 3.25278 43.2779 3.74428C43.2779 3.77015 43.2779 3.79602 43.2779 3.82189C43.252 4.15818 43.071 4.4686 42.8123 4.67555L41.9069 5.50334V5.5292C41.9069 5.5292 41.9069 5.5292 41.9328 5.5292H43.2521C43.2521 5.5292 43.2779 5.5292 43.2779 5.55507V5.8655C43.2779 5.8655 43.2779 5.89136 43.2521 5.89136H41.3895C41.3895 5.89136 41.3636 5.89136 41.3636 5.8655L41.3895 5.58094Z" fill="#FFCE00"/>
<path d="M45.0111 5.94309C44.1833 5.94309 43.8987 5.29638 43.8987 4.44272C43.8987 3.58906 44.1574 2.94235 45.0111 2.94235C45.8647 2.94235 46.0976 3.58906 46.0976 4.44272C46.0976 5.29638 45.8647 5.94309 45.0111 5.94309ZM44.3902 5.06356C44.3902 5.08943 44.4161 5.08943 44.442 5.06356L45.4508 3.51146V3.48559C45.3474 3.38212 45.1922 3.33038 45.037 3.33038C44.5196 3.33038 44.3385 3.74427 44.3385 4.46859C44.3385 4.64967 44.3644 4.85662 44.3902 5.06356ZM45.6319 3.82188L45.6061 3.79601C45.6061 3.79601 45.6061 3.79601 45.5802 3.79601L44.5713 5.37399V5.39985C44.6748 5.50333 44.8559 5.58093 45.0111 5.55506C45.5026 5.55506 45.7095 5.14117 45.7095 4.41685C45.7095 4.23577 45.6837 4.02883 45.6319 3.82188Z" fill="#FFCE00"/>
<path d="M46.9512 5.58094C46.9512 5.55507 46.9512 5.55507 46.9771 5.5292L48.1153 4.41686C48.2188 4.33926 48.4774 4.08057 48.4774 3.82189C48.4774 3.53734 48.2446 3.30452 47.9342 3.30452C47.9342 3.30452 47.9342 3.30452 47.9084 3.30452C47.6238 3.30452 47.391 3.51147 47.391 3.77015C47.391 3.77015 47.391 3.79602 47.3651 3.79602H47.003C47.003 3.79602 46.9771 3.79602 46.9771 3.77015C46.9771 3.30452 47.3651 2.91649 47.8307 2.94236C47.8566 2.94236 47.8825 2.94236 47.8825 2.94236C48.3481 2.89062 48.7879 3.25278 48.8137 3.74428C48.8137 3.77015 48.8137 3.79602 48.8137 3.82189C48.7879 4.15818 48.6068 4.4686 48.3481 4.67555L47.4427 5.50334V5.5292C47.4427 5.5292 47.4427 5.5292 47.4686 5.5292H48.7879C48.7879 5.5292 48.8137 5.5292 48.8137 5.55507V5.8655C48.8137 5.8655 48.8138 5.89136 48.7879 5.89136H46.9253C46.9253 5.89136 46.8995 5.89136 46.8995 5.8655L46.9512 5.58094Z" fill="#FFCE00"/>
<path d="M120.314 13.3932C120.418 11.9187 121.685 10.8064 123.16 10.9098C124.634 11.0133 125.746 12.2809 125.643 13.7554C125.54 15.1523 124.375 16.2387 122.979 16.2387C121.504 16.2387 120.288 15.0229 120.314 13.5226C120.314 13.4967 120.314 13.4449 120.314 13.3932ZM124.531 13.3932C124.401 12.5396 123.599 11.9446 122.746 12.0739C121.892 12.2033 121.297 13.0052 121.426 13.8588C121.53 14.6349 122.203 15.204 122.979 15.204C123.91 15.1264 124.582 14.3245 124.531 13.3932Z" fill="white"/>
<path d="M126.885 11.66H126.212V10.5994H126.885V10.2373C126.781 9.28013 127.48 8.42647 128.437 8.323C128.489 8.323 128.54 8.323 128.618 8.323C128.825 8.323 129.032 8.37473 129.239 8.45234V9.43534C129.109 9.40947 129.006 9.3836 128.877 9.3836C128.411 9.3836 128.023 9.74576 127.997 10.2114C127.997 10.2373 127.997 10.2373 127.997 10.2631V10.6253H129.239V11.6859H127.997V16.2129H126.885V11.66Z" fill="white"/>
<path d="M133.197 14.3245V11.66H132.214V10.5994H132.653C133.041 10.6253 133.378 10.3148 133.404 9.90095C133.404 9.87508 133.404 9.87508 133.404 9.84921V9.09903H134.335V10.5994H135.577V11.66H134.335V14.3245C134.335 14.7901 134.697 15.1781 135.163 15.204C135.188 15.204 135.188 15.204 135.214 15.204C135.344 15.204 135.473 15.1781 135.577 15.1522V16.1352C135.37 16.2128 135.163 16.2646 134.956 16.2646C133.999 16.2646 133.222 15.4885 133.222 14.5055C133.197 14.4538 133.197 14.3762 133.197 14.3245Z" fill="white"/>
<path d="M136.792 8.37473H137.905V11.1685C138.319 10.7546 138.888 10.5477 139.457 10.5477C140.698 10.5735 141.707 11.6083 141.681 12.85C141.681 12.8758 141.681 12.9276 141.681 12.9534V16.187H140.569V12.9534C140.595 12.2291 140 11.6083 139.276 11.5824C138.551 11.5565 137.931 12.1515 137.905 12.8758C137.905 12.9017 137.905 12.9276 137.905 12.9534V16.187H136.792V8.37473Z" fill="white"/>
<path d="M142.69 13.3932C142.561 11.9446 143.622 10.677 145.044 10.5477C146.493 10.4183 147.761 11.4789 147.89 12.9017C147.916 13.0569 147.916 13.2121 147.89 13.3673C147.89 13.5225 147.864 13.7036 147.838 13.8588H143.88C144.01 14.6866 144.76 15.2557 145.588 15.1522C146.001 15.1005 146.364 14.8677 146.596 14.5573H147.761C147.424 15.592 146.441 16.2646 145.355 16.2387C143.88 16.2387 142.664 15.0229 142.69 13.5225C142.69 13.4967 142.69 13.4449 142.69 13.3932ZM146.855 12.9534C146.778 12.1515 146.105 11.5565 145.303 11.5824C144.553 11.6083 143.932 12.2032 143.88 12.9534H146.855Z" fill="white"/>
<path d="M153.426 13.1863L150.942 8.42648H152.184L153.969 11.9705H154.021L155.806 8.42648H157.047L154.564 13.1863V16.2129H153.374L153.426 13.1863Z" fill="white"/>
<path d="M156.892 13.4449C156.763 11.9963 157.823 10.7287 159.246 10.5994C160.695 10.4701 161.962 11.5307 162.092 12.9534C162.117 13.1086 162.117 13.2638 162.092 13.4191C162.092 13.5743 162.066 13.7553 162.04 13.9106H158.082C158.211 14.7383 158.962 15.3075 159.789 15.204C160.203 15.1522 160.565 14.9194 160.798 14.609H161.988C161.652 15.6437 160.669 16.3163 159.582 16.2905C158.108 16.2905 156.892 15.0746 156.918 13.5743C156.892 13.5225 156.892 13.4967 156.892 13.4449ZM161.031 13.0052C160.953 12.2032 160.281 11.6083 159.479 11.6341C158.729 11.66 158.108 12.255 158.056 13.0052H161.031Z" fill="white"/>
<path d="M162.894 14.609C162.894 13.4967 163.644 12.7465 166.36 12.7465V12.5654C166.36 11.9963 165.998 11.6342 165.299 11.6342C164.549 11.6342 164.239 11.9446 164.187 12.3067H163.075C163.126 11.3237 163.954 10.5735 165.299 10.5735C166.412 10.4959 167.369 11.2979 167.472 12.4102C167.472 12.4619 167.472 12.5137 167.472 12.5654V16.2129H166.67L166.412 15.6438C165.998 16.0835 165.403 16.2905 164.808 16.2646C163.592 16.2905 162.894 15.6179 162.894 14.609ZM166.386 14.0399V13.7295C164.394 13.7295 164.032 14.0917 164.032 14.6608C164.032 14.9712 164.342 15.2816 164.911 15.2816C165.636 15.3851 166.282 14.8677 166.386 14.1434C166.36 14.1175 166.386 14.0917 166.386 14.0399Z" fill="white"/>
<path d="M168.792 10.6512H169.593L169.852 11.2203C170.214 10.8322 170.732 10.5994 171.275 10.5994C171.404 10.5994 171.534 10.6253 171.637 10.6512V11.7635C171.508 11.7376 171.404 11.7118 171.275 11.7118C170.525 11.7118 169.93 12.3326 169.904 13.0828V16.2387H168.792V10.6512Z" fill="white"/>
<path d="M49.6156 5.9431C49.6156 5.9431 49.5898 5.9431 49.6156 5.9431C49.5898 5.9431 49.5898 5.9431 49.6156 5.9431L49.5898 5.60681C49.5898 5.60681 49.5898 5.58094 49.6156 5.58094H50.3917C50.3917 5.58094 50.4176 5.58094 50.4176 5.55508V3.9771C50.4176 3.8995 50.3658 3.84776 50.2882 3.84776H49.6674C49.6674 3.84776 49.6415 3.84776 49.6415 3.82189V3.53734C49.6415 3.53734 49.6415 3.51147 49.6674 3.51147H50.1847C50.3141 3.51147 50.4176 3.408 50.4434 3.27865V3.07171C50.4434 3.07171 50.4434 3.04584 50.4693 3.04584H50.8314C50.8314 3.04584 50.8573 3.04584 50.8573 3.07171V5.58094C50.8573 5.58094 50.8573 5.60681 50.8832 5.60681H51.6593C51.6593 5.60681 51.6851 5.60681 51.6851 5.63268V5.9431C51.6851 5.9431 51.6851 5.96897 51.6593 5.96897L49.6156 5.9431Z" fill="#FFCE00"/>
<path d="M38.8026 4.59793H40.4026" stroke="#FFCE00" stroke-width="0.5" stroke-miterlimit="10"/>
</svg>
