<svg width="19" height="19" viewBox="0 0 19 19" fill="none" xmlns="http://www.w3.org/2000/svg">
<path d="M9.60002 16.8C13.8526 16.8 17.3 13.3526 17.3 9.10003C17.3 4.84743 13.8526 1.40002 9.60002 1.40002C5.34743 1.40002 1.90002 4.84743 1.90002 9.10003C1.90002 13.3526 5.34743 16.8 9.60002 16.8Z" fill="white"/>
<path d="M9.3 0C4.1 0 0 4.2 0 9.3C0 14.5 4.2 18.6 9.3 18.6C14.5 18.6 18.6 14.4 18.6 9.3C18.7 4.2 14.5 0 9.3 0ZM12.9 4.8H11.6C10.6 4.8 10.4 5.3 10.4 6V7.6H12.8V10H10.4V16.3H7.90001V10H5.8V7.6H7.90001V5.8C7.90001 3.7 9.2 2.6 11 2.6H12.9V4.8Z" fill="#3A3A3A"/>
</svg>
