<svg width="21" height="21" viewBox="0 0 21 21" fill="none" xmlns="http://www.w3.org/2000/svg">
<path d="M10.5 21C16.299 21 21 16.299 21 10.5C21 4.70101 16.299 0 10.5 0C4.70101 0 0 4.70101 0 10.5C0 16.299 4.70101 21 10.5 21Z" fill="#FFD400"/>
<path d="M15.4329 8.09226C15.2411 6.76453 14.6617 5.66012 13.6594 4.81557C12.4614 3.80861 11.0873 3.43912 9.56434 3.73553C8.47989 3.94667 7.55595 4.48263 6.82776 5.34342C5.61803 6.77671 5.25786 8.4252 5.75506 10.2645C6.0252 11.2634 6.48325 12.1729 7.00394 13.0499C7.84958 14.4751 8.85965 15.7703 9.96368 16.9925C10.0968 17.1387 10.2221 17.3051 10.4061 17.3904C10.4765 17.3904 10.5431 17.3904 10.6136 17.3904C10.7349 17.3295 10.8289 17.2402 10.9228 17.1387C11.7489 16.2413 12.5202 15.2953 13.2209 14.2883C13.9413 13.2529 14.5834 12.1729 15.0336 10.9791C15.382 10.0493 15.5778 9.09922 15.4329 8.09226ZM14.4385 10.1387C14.1645 11.0522 13.7416 11.8927 13.2523 12.7007C12.4771 13.9757 11.5649 15.141 10.5901 16.2576C10.5313 16.3225 10.5 16.3388 10.4374 16.2616C9.32945 14.9948 8.29589 13.6671 7.46982 12.181C7.02743 11.3852 6.65159 10.5609 6.46759 9.65548C6.24835 8.5998 6.41278 7.60096 6.92564 6.67114C7.47765 5.6723 8.29589 5.01453 9.35685 4.67752C9.73269 4.55977 10.1242 4.51105 10.5157 4.50293C12.4262 4.51511 14.1096 5.8672 14.552 7.8527C14.7204 8.62416 14.6656 9.38344 14.4385 10.1387Z" fill="black"/>
<path d="M10.5118 6.21637C9.14546 6.21637 8.02577 7.37762 8.02577 8.79468C8.02577 10.2117 9.14154 11.373 10.5118 11.373C11.8781 11.373 12.9978 10.2117 12.9978 8.79468C12.9978 7.38168 11.8781 6.22043 10.5118 6.21637ZM10.5118 10.5163C9.5996 10.5163 8.85183 9.73667 8.85575 8.79061C8.85966 7.84862 9.60351 7.07716 10.5118 7.07716C11.424 7.07716 12.1717 7.85674 12.1678 8.8028C12.1639 9.74479 11.4201 10.5163 10.5118 10.5163Z" fill="black"/>
</svg>
