<svg width="21" height="21" viewBox="0 0 21 21" fill="none" xmlns="http://www.w3.org/2000/svg">
<path d="M10.5 21C16.299 21 21 16.299 21 10.5C21 4.70101 16.299 0 10.5 0C4.70101 0 0 4.70101 0 10.5C0 16.299 4.70101 21 10.5 21Z" fill="#FFD400"/>
<path d="M16.0126 6.1687H5.51257L10.7626 10.4999L16.0126 6.1687Z" fill="black" stroke="#FFD400" stroke-width="0.1528" stroke-miterlimit="10"/>
<path d="M11.0251 11.4187C10.8939 11.5499 10.6314 11.5499 10.5001 11.4187L5.1189 6.95615V13.9124C5.1189 14.1749 5.25015 14.3062 5.51265 14.3062H16.0126C16.2751 14.3062 16.4064 14.1749 16.4064 13.9124V6.95615L11.0251 11.4187Z" fill="black" stroke="#FFD400" stroke-width="0.1528" stroke-miterlimit="10"/>
</svg>
