<svg width="21" height="21" viewBox="0 0 21 21" fill="none" xmlns="http://www.w3.org/2000/svg">
<path d="M10.5 21C16.299 21 21 16.299 21 10.5C21 4.701 16.299 0 10.5 0C4.70101 0 0 4.701 0 10.5C0 16.299 4.70101 21 10.5 21Z" fill="#FFD400"/>
<path d="M16.0127 11.6813C16.144 11.2875 16.144 10.8938 16.144 10.5C16.144 9.7125 16.0127 9.05626 15.7502 8.40001C15.4877 7.74376 15.094 7.21876 14.569 6.69376C14.044 6.16876 13.519 5.77502 12.8627 5.51252C12.2065 5.25002 11.5502 5.11876 10.7627 5.11876C10.369 5.11876 9.97522 5.11875 9.58147 5.25C9.05647 4.85625 8.40022 4.59375 7.74397 4.59375C6.95647 4.59375 6.30022 4.85627 5.64397 5.51252C5.11897 6.03752 4.72522 6.82501 4.72522 7.61251C4.72522 8.26876 4.98772 8.92502 5.38147 9.45002C5.25022 9.84377 5.25022 10.2375 5.25022 10.6313C5.25022 11.4188 5.38147 12.075 5.64397 12.7313C5.90647 13.3875 6.30022 13.9125 6.82522 14.4375C7.35022 14.9625 7.87522 15.3563 8.53147 15.6188C9.18772 15.8813 9.84397 16.0125 10.6315 16.0125C11.0252 16.0125 11.419 16.0125 11.8127 15.8813C12.3377 16.275 12.994 16.5375 13.6502 16.5375C14.4377 16.5375 15.094 16.275 15.7502 15.6188C16.2752 15.0938 16.669 14.3063 16.669 13.5188C16.669 12.8625 16.4065 12.2063 16.0127 11.6813ZM13.6502 12.8625C13.519 13.125 13.2565 13.3875 12.994 13.5188C12.7315 13.65 12.3377 13.7813 12.0752 13.9125C11.6815 14.0438 11.419 14.0438 11.0252 14.0438C10.1065 14.0438 9.45022 13.9125 8.79397 13.5188C8.00647 13.2563 7.74397 12.8625 7.74397 12.3375C7.74397 12.075 7.74397 11.9438 7.87522 11.8125C8.00647 11.6813 8.13772 11.55 8.40022 11.55C8.53147 11.55 8.66272 11.55 8.79397 11.6813C8.92522 11.8125 9.05647 11.8125 9.18772 11.9438C9.31897 12.075 9.45022 12.2063 9.58147 12.3375C9.71272 12.4688 9.84397 12.6 10.1065 12.6C10.369 12.7313 10.5002 12.7313 10.7627 12.7313C11.1565 12.7313 11.419 12.7313 11.5502 12.6C11.8127 12.4688 11.8127 12.3375 11.8127 12.075C11.8127 11.8125 11.6815 11.6813 11.5502 11.6813C11.419 11.55 11.1565 11.55 10.6315 11.4188L9.45022 11.1563C9.18772 11.025 8.92522 11.025 8.66272 10.8938C8.40022 10.7625 8.26897 10.6313 8.00647 10.5C7.87522 10.3688 7.61272 10.1063 7.61272 9.97501C7.74397 9.58126 7.74397 9.31876 7.74397 9.05626C7.74397 8.66251 7.87522 8.40002 8.00647 8.13752C8.13772 7.87502 8.40022 7.61252 8.66272 7.48127C8.92522 7.35002 9.18772 7.21876 9.58147 7.08751C9.84397 6.95626 10.2377 6.95626 10.6315 6.95626C11.1565 6.95626 11.5502 6.95626 12.0752 7.08751C12.469 7.21876 12.8627 7.35001 13.1252 7.61251C13.3877 7.87501 13.519 8.13751 13.519 8.40001C13.519 8.66251 13.3877 8.79376 13.2565 8.92501C13.1252 9.05626 12.8627 9.1875 12.7315 9.1875C12.6002 9.1875 12.469 9.18751 12.3377 9.05626C12.2065 9.05626 12.0752 8.92502 12.0752 8.79377C11.944 8.66252 11.944 8.6625 11.8127 8.53125C11.6815 8.4 11.5502 8.40001 11.419 8.26876C11.2877 8.26876 11.0252 8.13752 10.894 8.13752C10.1065 8.13752 9.84397 8.26876 9.84397 8.66251C9.84397 8.79376 9.84397 8.79376 9.84397 8.92501C9.84397 9.05626 9.97522 9.05626 9.97522 9.05626C9.97522 9.05626 10.1065 9.1875 10.2377 9.1875C10.369 9.1875 10.369 9.31876 10.5002 9.31876C10.6315 9.31876 10.6315 9.31877 10.894 9.45002L11.6815 9.58126C11.944 9.58126 12.2065 9.71251 12.3377 9.71251C12.469 9.71251 12.7315 9.84376 12.994 9.97501C13.2565 10.1063 13.3877 10.2375 13.519 10.3688C13.6502 10.5 13.7815 10.6313 13.9127 10.8938C14.044 11.1563 14.044 11.2875 14.044 11.55C13.7815 12.2063 13.7815 12.6 13.6502 12.8625Z" fill="black"/>
</svg>
