<svg width="21" height="21" viewBox="0 0 21 21" fill="none" xmlns="http://www.w3.org/2000/svg">
<path d="M10.5 21C16.299 21 21 16.299 21 10.5C21 4.70101 16.299 0 10.5 0C4.70101 0 0 4.70101 0 10.5C0 16.299 4.70101 21 10.5 21Z" fill="#FFD400"/>
<path d="M16.0123 15.4577C15.887 15.4252 15.8988 15.3562 15.8988 15.2668C15.8988 14.0812 15.8988 12.8915 15.8988 11.7059C15.8988 10.7477 15.8988 9.78945 15.8988 8.83527C15.8988 8.62819 15.8479 8.43736 15.7343 8.27088C15.5738 8.02727 15.3389 7.90952 15.0531 7.90952C14.4033 7.90546 13.7573 7.90952 13.1074 7.90952C13.0095 7.90952 12.8725 7.95824 12.8216 7.88921C12.7707 7.82831 12.8059 7.69026 12.8059 7.58875C12.8059 6.69548 12.802 5.79815 12.8059 4.90488C12.8059 4.60035 12.7002 4.34455 12.4927 4.14966C12.25 3.92634 11.9564 3.90604 11.6549 4.01972C11.4944 4.08063 11.3456 4.16184 11.189 4.23492C10.7467 4.44606 10.2847 4.61253 9.8462 4.83585C9.42339 5.04699 8.97708 5.2094 8.54643 5.41242C8.0179 5.66416 7.46981 5.87529 6.94128 6.13109C6.60851 6.28945 6.25616 6.40314 5.93122 6.58585C5.59844 6.77669 5.4575 7.06091 5.4575 7.44664C5.4575 9.9884 5.4575 12.5302 5.4575 15.0719C5.4575 15.1897 5.5084 15.3521 5.43401 15.4171C5.37137 15.4739 5.21869 15.4333 5.10907 15.4333C4.94464 15.4333 4.77238 15.5592 4.70974 15.7135C4.62361 15.9408 4.76455 16.29 5.10907 16.29C6.90213 16.2819 8.69128 16.286 10.4843 16.286C12.2774 16.286 14.0666 16.286 15.8596 16.286C16.0945 16.286 16.2394 16.1601 16.2785 15.9246C16.3099 15.7419 16.1924 15.5064 16.0123 15.4577ZM11.9133 15.4333C10.0615 15.4292 8.20974 15.4292 6.35795 15.4333C6.25616 15.4333 6.23267 15.4089 6.23267 15.3034C6.23658 12.6926 6.23658 10.0859 6.23267 7.47506C6.23267 7.37761 6.26007 7.33295 6.35012 7.29235C6.87081 7.04061 7.415 6.83759 7.93569 6.58585C8.35851 6.38283 8.80482 6.22448 9.22372 6.01334C9.66611 5.79003 10.1359 5.63167 10.5783 5.40836C11.0011 5.19316 11.4474 5.03075 11.8781 4.83179C12.0229 4.76682 12.0386 4.77901 12.0386 4.94142C12.0386 6.66706 12.0386 8.39269 12.0386 10.1224C12.0386 11.848 12.0386 13.5737 12.0425 15.3034C12.0347 15.4089 12.0112 15.4333 11.9133 15.4333ZM15.1275 15.3115C15.1275 15.4008 15.1158 15.4374 15.014 15.4374C14.3132 15.4333 13.6124 15.4333 12.9116 15.4374C12.8177 15.4374 12.802 15.4089 12.802 15.3196C12.8059 14.2396 12.802 13.1636 12.802 12.0835C12.802 11.0075 12.802 9.93562 12.7981 8.85963C12.7981 8.75406 12.8216 8.7297 12.9234 8.7297C13.6085 8.73376 14.2936 8.73376 14.9748 8.7297C15.0962 8.7297 15.1236 8.7703 15.1236 8.88805C15.1236 11.0319 15.1236 13.1717 15.1275 15.3115Z" fill="black"/>
<path d="M9.12584 10.841C8.81656 10.841 8.50728 10.841 8.19799 10.841C7.97092 10.841 7.77517 10.6421 7.783 10.4106C7.79083 10.1914 7.9396 9.98431 8.19408 9.98837C8.82047 9.99649 9.44687 9.99243 10.0772 9.98837C10.2651 9.98837 10.3865 10.0818 10.4569 10.2564C10.5196 10.4147 10.4883 10.5528 10.3904 10.6867C10.3043 10.8045 10.1946 10.8451 10.0576 10.841C9.74441 10.841 9.43513 10.841 9.12584 10.841Z" fill="black"/>
<path d="M9.13369 9.16006C8.82441 9.16006 8.51512 9.16006 8.20192 9.16006C7.9866 9.16006 7.86524 9.07073 7.8026 8.87178C7.73996 8.68094 7.79477 8.52665 7.9592 8.3886C8.03358 8.3277 8.10796 8.30333 8.19801 8.30333C8.81658 8.30333 9.43906 8.31551 10.0576 8.29927C10.2612 8.29521 10.4922 8.55101 10.4844 8.72967C10.4726 8.98547 10.316 9.156 10.0615 9.156C9.75618 9.16006 9.44689 9.16006 9.13369 9.16006Z" fill="black"/>
<path d="M9.13366 14.1786C8.82438 14.1786 8.51509 14.1786 8.20581 14.1786C7.95525 14.1786 7.78299 14.0081 7.78299 13.7686C7.78299 13.5128 7.94742 13.3503 8.20581 13.3503C8.82438 13.3503 9.44294 13.3503 10.0615 13.3503C10.3199 13.3503 10.4843 13.5168 10.4843 13.7726C10.4843 14.0122 10.3121 14.1786 10.0576 14.1786C9.75223 14.1786 9.44294 14.1786 9.13366 14.1786Z" fill="black"/>
<path d="M9.12977 12.4976C8.82049 12.4976 8.5112 12.4976 8.198 12.4976C7.95527 12.4976 7.7791 12.3271 7.7791 12.0956C7.7791 11.8358 7.94353 11.6693 8.198 11.6693C8.82049 11.6693 9.44688 11.6693 10.0694 11.6693C10.316 11.6693 10.4804 11.8398 10.4844 12.0916C10.4883 12.323 10.3121 12.4976 10.0694 12.4976C9.75617 12.4976 9.44297 12.4976 9.12977 12.4976Z" fill="black"/>
</svg>
