<svg width="21" height="21" viewBox="0 0 21 21" fill="none" xmlns="http://www.w3.org/2000/svg">
<path d="M13.5186 13.1249C13.3873 12.9937 13.1248 12.9937 12.9936 13.1249L12.0748 14.0437C11.8123 14.3062 11.4186 14.3062 11.1561 14.1749C10.6311 13.7812 10.2373 13.3875 9.71234 12.9937C9.31859 12.6 8.92484 12.2062 8.66234 11.6812C8.39984 11.4187 8.53108 11.025 8.79358 10.7625L9.71234 9.84369C9.84359 9.71244 9.84359 9.44995 9.71234 9.3187L8.13733 7.7437C8.00608 7.61245 7.74358 7.61245 7.61233 7.7437L7.08734 8.26869C6.56234 8.79369 6.29983 9.71244 6.56233 10.4999C6.82483 11.1562 7.08732 11.8125 7.48108 12.3375C7.87483 12.8625 8.26859 13.3874 8.66234 13.7812C9.18734 14.3062 9.71234 14.6999 10.3686 15.0937C11.0248 15.4874 11.6811 15.8812 12.4686 16.0125C13.2561 16.1437 14.0436 16.0125 14.5686 15.4875L14.9623 15.0937C15.0936 14.9624 15.0936 14.7 14.9623 14.5687L13.5186 13.1249Z" fill="#1C1C1C"/>
<path d="M10.5 21C16.299 21 21 16.299 21 10.5C21 4.701 16.299 0 10.5 0C4.70101 0 0 4.701 0 10.5C0 16.299 4.70101 21 10.5 21Z" fill="#FFD400"/>
<path d="M13.6499 11.9437C13.5186 11.8125 13.2561 11.8125 13.1249 11.9437L12.0749 12.9937C11.8124 13.2562 11.2874 13.3874 11.0249 13.1249C10.4999 12.7312 9.84363 12.2062 9.31863 11.6812C8.92488 11.2875 8.39988 10.7624 8.00613 10.2374C7.74363 9.8437 7.74361 9.44994 8.13737 9.18744L9.18737 8.13746C9.31862 8.00621 9.31862 7.7437 9.18737 7.61244L7.34988 5.77495C7.21863 5.6437 6.95611 5.6437 6.82486 5.77495L6.29987 6.29994C5.64362 6.95619 5.38112 8.0062 5.64362 8.92495C5.90612 9.71245 6.29988 10.4999 6.69363 11.1562C7.08738 11.8124 7.61236 12.3374 8.13737 12.8624C8.66237 13.3874 9.31862 13.9124 10.1061 14.4374C10.8936 14.9624 11.6811 15.3562 12.5999 15.4875C13.5186 15.75 14.3061 15.4875 14.9624 14.8312L15.4874 14.3062C15.6186 14.175 15.6186 13.9124 15.4874 13.7812L13.6499 11.9437Z" fill="#1C1C1C"/>
</svg>
