<svg width="19" height="19" viewBox="0 0 19 19" fill="none" xmlns="http://www.w3.org/2000/svg">
<path d="M9.77449 17.1055C14.1044 17.1055 17.6145 13.5954 17.6145 9.26546C17.6145 4.93556 14.1044 1.42548 9.77449 1.42548C5.44459 1.42548 1.93451 4.93556 1.93451 9.26546C1.93451 13.5954 5.44459 17.1055 9.77449 17.1055Z" fill="white"/>
<path d="M9.46908 0C4.17454 0 0 4.27636 0 9.46907C0 14.7636 4.27636 18.9381 9.46908 18.9381C14.7636 18.9381 18.9382 14.6618 18.9382 9.46907C19.04 4.27636 14.7636 0 9.46908 0ZM13.1345 4.88726H11.8109C10.7927 4.88726 10.5891 5.39635 10.5891 6.10908V7.73817H13.0327V10.1818H10.5891V16.5963H8.04363V10.1818H5.90545V7.73817H8.04363V5.90544C8.04363 3.76727 9.36726 2.64727 11.2 2.64727H13.1345V4.88726Z" fill="#3A3A3A"/>
</svg>
