<svg width="20" height="20" viewBox="0 0 20 20" fill="none" xmlns="http://www.w3.org/2000/svg">
<path d="M9.52671 17.1055C13.8566 17.1055 17.3667 13.5954 17.3667 9.26552C17.3667 4.93562 13.8566 1.42554 9.52671 1.42554C5.1968 1.42554 1.68671 4.93562 1.68671 9.26552C1.68671 13.5954 5.1968 17.1055 9.52671 17.1055Z" fill="white"/>
<path d="M8.7121 11.4038L11.7666 9.67286L8.7121 7.94196V11.4038Z" fill="#3A3A3A"/>
<path d="M9.93403 0.101868C4.63949 0.101868 0.464966 4.37822 0.464966 9.57094C0.464966 14.7637 4.74131 19.04 9.93403 19.04C15.1267 19.04 19.4031 14.7637 19.4031 9.57094C19.4031 4.37822 15.1267 0.101868 9.93403 0.101868ZM15.8395 9.67276C15.8395 9.67276 15.8395 11.6073 15.6358 12.5237C15.534 13.0328 15.1268 13.44 14.6177 13.5418C13.7013 13.7455 9.93403 13.7455 9.93403 13.7455C9.93403 13.7455 6.26857 13.7455 5.25039 13.5418C4.7413 13.44 4.33403 13.0328 4.23221 12.5237C4.02858 11.6073 4.0286 9.67276 4.0286 9.67276C4.0286 9.67276 4.02858 7.73822 4.23221 6.82186C4.33403 6.31277 4.7413 5.90549 5.25039 5.80367C6.16676 5.60004 9.93403 5.60004 9.93403 5.60004C9.93403 5.60004 13.7013 5.60004 14.6177 5.80367C15.1268 5.90549 15.534 6.31277 15.6358 6.82186C15.8395 7.73822 15.8395 9.67276 15.8395 9.67276Z" fill="#3A3A3A"/>
</svg>
