<svg width="21" height="21" viewBox="0 0 21 21" fill="none" xmlns="http://www.w3.org/2000/svg">
<path d="M11.4186 5.90628C9.44989 5.90628 7.74365 7.61253 7.74365 9.58128C7.74365 10.2375 7.87489 10.7625 8.13739 11.2875L11.1561 16.8C11.1561 16.9313 11.2874 16.9313 11.4186 16.9313C11.5499 16.9313 11.5499 16.9313 11.6812 16.8L14.6999 11.2875C14.9624 10.7625 15.0936 10.1063 15.0936 9.58128C15.0936 7.61253 13.3874 5.90628 11.4186 5.90628ZM11.4186 11.4188C10.3686 11.4188 9.58114 10.6313 9.58114 9.58128C9.58114 8.53128 10.3686 7.74379 11.4186 7.74379C12.4686 7.74379 13.2561 8.53128 13.2561 9.58128C13.2561 10.6313 12.4686 11.4188 11.4186 11.4188Z" fill="#1C1C1C"/>
<path d="M10.5 21C16.299 21 21 16.299 21 10.5C21 4.70101 16.299 0 10.5 0C4.70101 0 0 4.70101 0 10.5C0 16.299 4.70101 21 10.5 21Z" fill="#FFD400"/>
<path d="M10.4999 4.0687C8.13739 4.0687 6.16864 6.03745 6.16864 8.39995C6.16864 9.0562 6.2999 9.84369 6.69365 10.4999L10.2374 16.9312C10.2374 17.0624 10.3686 17.0624 10.4999 17.0624C10.6311 17.0624 10.6311 17.0624 10.7624 16.9312L14.3062 10.4999C14.6999 9.84369 14.8311 9.18745 14.8311 8.39995C14.8311 5.9062 12.8624 4.0687 10.4999 4.0687ZM10.4999 10.4999C9.31864 10.4999 8.39991 9.5812 8.39991 8.39995C8.39991 7.2187 9.31864 6.29994 10.4999 6.29994C11.6811 6.29994 12.5999 7.2187 12.5999 8.39995C12.5999 9.44995 11.6811 10.4999 10.4999 10.4999Z" fill="#1C1C1C"/>
</svg>
