<svg width="21" height="21" viewBox="0 0 21 21" fill="none" xmlns="http://www.w3.org/2000/svg">
<path d="M10.5 21C16.299 21 21 16.299 21 10.5C21 4.70101 16.299 0 10.5 0C4.70101 0 0 4.70101 0 10.5C0 16.299 4.70101 21 10.5 21Z" fill="#FFD400"/>
<path d="M13.5188 3.41257H7.87505C7.35005 3.41257 6.9563 3.80632 6.9563 4.33132V15.7501C6.9563 16.2751 7.35005 16.6688 7.87505 16.6688H13.5188C14.0438 16.6688 14.4375 16.2751 14.4375 15.7501V4.33132C14.4375 3.93757 14.0438 3.41257 13.5188 3.41257ZM9.3188 4.06882H12.075C12.2063 4.06882 12.2063 4.20007 12.2063 4.33132C12.2063 4.46257 12.2063 4.59382 12.075 4.59382H9.3188C9.18755 4.59382 9.18755 4.46257 9.18755 4.33132C9.18755 4.20007 9.18755 4.06882 9.3188 4.06882ZM10.6313 15.8813C10.2375 15.8813 9.97505 15.6188 9.97505 15.2251C9.97505 14.8313 10.2375 14.5688 10.6313 14.5688C11.025 14.5688 11.2875 14.8313 11.2875 15.2251C11.2875 15.6188 11.025 15.8813 10.6313 15.8813ZM13.7813 13.6501H7.61255V5.11882H13.65C13.7813 5.11882 13.7813 13.6501 13.7813 13.6501Z" fill="black"/>
</svg>
