<svg width="21" height="22" viewBox="0 0 21 22" fill="none" xmlns="http://www.w3.org/2000/svg">
<path d="M10.6311 18.544C13.3874 18.544 15.6186 16.3128 15.6186 13.5565C15.6186 10.8003 13.3874 8.56903 10.6311 8.56903C7.87487 8.56903 5.64362 10.8003 5.64362 13.5565C5.64362 16.3128 7.87487 18.544 10.6311 18.544ZM7.34987 16.0503C7.74362 15.919 8.26861 15.7878 8.79361 15.6565C8.92486 16.1815 8.92487 16.5753 9.05612 16.969C9.18737 17.2315 9.18737 17.3628 9.31862 17.494C8.53112 17.2315 7.87487 16.7065 7.34987 16.0503ZM6.56236 13.5565C6.56236 12.9003 6.69362 12.3753 6.95612 11.8503C7.48112 12.1128 8.13736 12.244 8.79361 12.3753C8.79361 12.769 8.79361 13.1628 8.79361 13.5565C8.79361 13.9503 8.79361 14.344 8.79361 14.7378C8.13736 14.869 7.48112 15.0003 6.95612 15.2628C6.69362 14.7378 6.56236 14.2128 6.56236 13.5565ZM10.6311 9.48778C10.7624 9.48778 11.0249 9.75028 11.2874 10.5378C11.4186 10.8003 11.4186 11.194 11.5499 11.5878C11.2874 11.5878 10.8936 11.5878 10.6311 11.5878C10.3686 11.5878 9.97487 11.5878 9.71237 11.5878C9.84362 11.194 9.84362 10.8003 9.97487 10.5378C10.3686 9.61903 10.6311 9.48778 10.6311 9.48778ZM10.6311 12.5065C11.0249 12.5065 11.2874 12.5065 11.6811 12.5065C11.6811 12.9003 11.6811 13.294 11.6811 13.5565C11.6811 13.9503 11.6811 14.344 11.6811 14.6065C11.2874 14.6065 11.0249 14.6065 10.6311 14.6065C10.2374 14.6065 9.97487 14.6065 9.58112 14.6065C9.58112 14.2128 9.58112 13.819 9.58112 13.5565C9.58112 13.1628 9.58112 12.769 9.58112 12.5065C9.97487 12.5065 10.3686 12.5065 10.6311 12.5065ZM14.8311 13.5565C14.8311 14.2128 14.6999 14.7378 14.4374 15.2628C13.9124 15.0003 13.2561 14.869 12.5999 14.7378C12.5999 14.344 12.5999 13.9503 12.5999 13.5565C12.5999 13.1628 12.5999 12.769 12.5999 12.3753C13.2561 12.244 13.9124 12.1128 14.4374 11.8503C14.6999 12.3753 14.8311 12.9003 14.8311 13.5565ZM10.6311 17.6253C10.4999 17.6253 10.2374 17.3628 9.97487 16.5753C9.84362 16.3128 9.84362 15.919 9.71237 15.5253C9.97487 15.5253 10.3686 15.5253 10.6311 15.5253C10.8936 15.5253 11.2874 15.5253 11.5499 15.5253C11.4186 15.919 11.4186 16.3128 11.2874 16.5753C11.0249 17.494 10.7624 17.6253 10.6311 17.6253ZM11.9436 17.494C12.0749 17.3628 12.0749 17.1003 12.2061 16.969C12.3374 16.5753 12.4686 16.1815 12.4686 15.6565C12.9936 15.7878 13.5186 15.919 13.9124 16.0503C13.5186 16.7065 12.8624 17.2315 11.9436 17.494ZM14.0436 11.0628C13.6499 11.194 13.1249 11.3253 12.5999 11.4565C12.4686 10.9315 12.4686 10.5378 12.3374 10.144C12.2061 9.88153 12.2061 9.75027 12.0749 9.61902C12.8624 9.88152 13.5186 10.4065 14.0436 11.0628ZM9.31862 9.61902C9.18737 9.75027 9.18737 10.0128 9.05612 10.144C8.92487 10.5378 8.79361 10.9315 8.79361 11.4565C8.26861 11.3253 7.74362 11.194 7.34987 11.0628C7.87487 10.4065 8.53112 9.88152 9.31862 9.61902Z" fill="#1C1C1C" stroke="#FFD400" stroke-width="0.177" stroke-miterlimit="10"/>
<path d="M10.5 21.3003C16.299 21.3003 21 16.5993 21 10.8003C21 5.0013 16.299 0.300293 10.5 0.300293C4.70101 0.300293 0 5.0013 0 10.8003C0 16.5993 4.70101 21.3003 10.5 21.3003Z" fill="#FFD400"/>
<path d="M10.4998 16.7065C13.7811 16.7065 16.5373 14.0815 16.5373 10.669C16.5373 7.38778 13.9123 4.63153 10.4998 4.63153C7.21858 4.63153 4.46234 7.25653 4.46234 10.669C4.59359 14.0815 7.21858 16.7065 10.4998 16.7065ZM6.56233 13.6878C7.08733 13.5565 7.61233 13.294 8.26858 13.294C8.39983 13.819 8.53109 14.344 8.66234 14.7378C8.79359 15.0003 8.79358 15.1315 8.92483 15.394C8.00608 15.1315 7.21858 14.4753 6.56233 13.6878ZM5.64358 10.8003C5.64358 10.144 5.77484 9.35653 6.03734 8.83153C6.56234 9.09403 7.34983 9.22528 8.13733 9.35653C8.13733 9.88153 8.13733 10.2753 8.13733 10.8003C8.13733 11.3253 8.13733 11.719 8.13733 12.244C7.34983 12.3753 6.56234 12.5065 6.03734 12.769C5.77484 12.244 5.64358 11.4565 5.64358 10.8003ZM10.4998 5.94403C10.6311 5.94403 10.8936 6.20652 11.2873 7.12527C11.4186 7.51902 11.5498 7.91277 11.5498 8.43777C11.1561 8.43777 10.8936 8.43777 10.4998 8.43777C10.1061 8.43777 9.71233 8.43777 9.44983 8.43777C9.58108 7.91277 9.58109 7.51902 9.71234 7.12527C10.1061 6.20652 10.3686 5.94403 10.4998 5.94403ZM10.4998 9.48778C10.8936 9.48778 11.2873 9.48778 11.6811 9.48778C11.6811 9.88153 11.6811 10.4065 11.6811 10.8003C11.6811 11.194 11.6811 11.719 11.6811 12.1128C11.2873 12.1128 10.8936 12.1128 10.4998 12.1128C10.1061 12.1128 9.71234 12.1128 9.31859 12.1128C9.31859 11.719 9.31859 11.194 9.31859 10.8003C9.31859 10.4065 9.31859 9.88153 9.31859 9.48778C9.71234 9.48778 10.1061 9.48778 10.4998 9.48778ZM15.3561 10.8003C15.3561 11.4565 15.2248 12.244 14.9623 12.769C14.4373 12.5065 13.6498 12.3753 12.8623 12.244C12.8623 11.719 12.8623 11.3253 12.8623 10.8003C12.8623 10.2753 12.8623 9.88153 12.8623 9.35653C13.6498 9.22528 14.4373 9.09403 14.9623 8.83153C15.2248 9.35653 15.3561 10.0128 15.3561 10.8003ZM10.4998 15.6565C10.3686 15.6565 10.1061 15.394 9.71234 14.4753C9.58109 14.0815 9.44983 13.6878 9.44983 13.1628C9.84358 13.1628 10.1061 13.1628 10.4998 13.1628C10.8936 13.1628 11.2873 13.1628 11.5498 13.1628C11.4186 13.6878 11.4186 14.0815 11.2873 14.4753C11.0248 15.394 10.6311 15.6565 10.4998 15.6565ZM12.0748 15.394C12.2061 15.2628 12.2061 15.0003 12.3373 14.7378C12.4686 14.344 12.5998 13.819 12.7311 13.294C13.3873 13.4253 14.0436 13.5565 14.4373 13.6878C13.7811 14.4753 12.9936 15.1315 12.0748 15.394ZM14.4373 7.78152C13.9123 7.91277 13.3873 8.17528 12.7311 8.17528C12.5998 7.65028 12.4686 7.12528 12.3373 6.73153C12.2061 6.46903 12.2061 6.33778 12.0748 6.07528C12.9936 6.46903 13.7811 7.12527 14.4373 7.78152ZM8.92483 6.20653C8.79358 6.33778 8.79359 6.60028 8.66234 6.86278C8.53109 7.25653 8.39983 7.78152 8.26858 8.30652C7.61233 8.17527 6.95608 8.04403 6.56233 7.91278C7.21858 7.12528 8.00608 6.46903 8.92483 6.20653Z" fill="#1C1C1C" stroke="#FFD400" stroke-width="0.2097" stroke-miterlimit="10"/>
</svg>
