<svg width="21" height="21" viewBox="0 0 21 21" fill="none" xmlns="http://www.w3.org/2000/svg">
<path d="M10.5 21C16.299 21 21 16.299 21 10.5C21 4.70101 16.299 0 10.5 0C4.70101 0 0 4.70101 0 10.5C0 16.299 4.70101 21 10.5 21Z" fill="#FFD400"/>
<path d="M16.0906 7.17866C16.0906 7.04467 16.0749 6.91474 16.0162 6.79293C15.8126 6.36254 15.4798 6.1311 15.0179 6.1311C11.9994 6.12704 8.97702 6.12704 5.95857 6.1311C5.89593 6.1311 5.83329 6.1311 5.77456 6.14734C5.30085 6.26103 4.99156 6.54119 4.90152 7.05279C4.90152 9.36312 4.90152 11.6734 4.90152 13.9838C4.92892 14.069 4.92501 14.1624 4.96808 14.2436C5.17948 14.674 5.51617 14.9014 5.98206 14.9014C8.98877 14.9055 11.9916 14.9014 14.9983 14.9014C15.0257 14.9014 15.057 14.9014 15.0844 14.9014C15.6168 14.873 16.0945 14.4101 16.0945 13.8538C16.0906 11.6247 16.0906 9.39966 16.0906 7.17866ZM15.1627 6.92286C14.7634 7.28423 14.3719 7.63342 13.9843 7.98261C12.845 9.00581 11.7097 10.029 10.5704 11.0522C10.5156 11.1009 10.4843 11.1172 10.4177 11.0603C8.89872 9.692 7.37971 8.32773 5.85678 6.9594C5.84503 6.95128 5.83329 6.94316 5.81371 6.93504C5.92333 6.8782 15.0257 6.87008 15.1627 6.92286ZM15.3819 13.7198C15.3819 13.9959 15.2488 14.1381 14.9787 14.1381C11.9877 14.1381 8.9966 14.1381 6.00555 14.1381C5.7315 14.1381 5.59839 14 5.59839 13.7158C5.59839 11.7506 5.59839 9.78133 5.59839 7.81613C5.59839 7.77959 5.59839 7.74305 5.59839 7.6862C5.84112 7.90546 6.06819 8.10848 6.29525 8.31149C7.60286 9.48493 8.90655 10.6584 10.2142 11.8318C10.4138 12.0104 10.5665 12.0104 10.774 11.8277C12.2734 10.4797 13.7768 9.12762 15.2762 7.77959C15.3076 7.75117 15.335 7.7268 15.3702 7.69432C15.3937 7.73087 15.3819 7.76335 15.3819 7.79583C15.3819 9.76915 15.3819 11.7465 15.3819 13.7198Z" fill="black" stroke="black" stroke-width="0.0309358" stroke-miterlimit="10"/>
</svg>
