<svg width="20" height="19" viewBox="0 0 20 19" fill="none" xmlns="http://www.w3.org/2000/svg">
<path d="M10.2108 17.1055C14.5407 17.1055 18.0508 13.5954 18.0508 9.26546C18.0508 4.93556 14.5407 1.42548 10.2108 1.42548C5.88087 1.42548 2.37079 4.93556 2.37079 9.26546C2.37079 13.5954 5.88087 17.1055 10.2108 17.1055Z" fill="white"/>
<path d="M9.90536 0C4.61082 0 0.436279 4.27636 0.436279 9.46907C0.436279 14.6618 4.71264 18.9381 9.90536 18.9381C15.0981 18.9381 19.3744 14.6618 19.3744 9.46907C19.3744 4.27636 15.1999 0 9.90536 0ZM14.2835 7.43271C14.2835 7.53453 14.2835 7.63635 14.2835 7.73817C14.2835 10.5891 12.0435 13.9491 8.07263 13.9491C6.85081 13.9491 5.73081 13.5418 4.71263 12.9309C4.91627 12.9309 5.01809 12.9309 5.22172 12.9309C6.2399 12.9309 7.15626 12.6254 7.97081 12.0145C7.05444 12.0145 6.2399 11.4036 5.93445 10.4873C6.03626 10.4873 6.23991 10.4873 6.34173 10.4873C6.54536 10.4873 6.74899 10.4873 6.95263 10.3854C5.93445 10.1818 5.22172 9.26544 5.22172 8.24726C5.52718 8.45089 5.83263 8.55271 6.2399 8.55271C5.62899 8.14544 5.22172 7.53453 5.22172 6.71999C5.22172 6.31272 5.32354 5.90544 5.52718 5.59999C6.64718 6.92362 8.17444 7.73817 10.0072 7.83998C10.0072 7.63635 9.90536 7.53453 9.90536 7.33089C9.90536 6.10908 10.9235 5.19272 12.0435 5.19272C12.6545 5.19272 13.2653 5.49817 13.6726 5.90544C14.1817 5.80363 14.589 5.59999 15.0981 5.39635C14.8944 5.90544 14.589 6.31272 14.1817 6.61817C14.589 6.51635 14.9963 6.41453 15.4035 6.31271C14.9963 6.71999 14.6908 7.12726 14.2835 7.43271Z" fill="#3A3A3A"/>
</svg>
