<svg width="20" height="19" viewBox="0 0 20 19" fill="none" xmlns="http://www.w3.org/2000/svg">
<path d="M9.86171 17.3091C14.2479 17.3091 17.8035 13.7534 17.8035 9.36728C17.8035 4.98114 14.2479 1.42548 9.86171 1.42548C5.47558 1.42548 1.91992 4.98114 1.91992 9.36728C1.91992 13.7534 5.47558 17.3091 9.86171 17.3091Z" fill="white"/>
<path d="M9.7599 0C4.46536 0 0.290833 4.27636 0.290833 9.46907C0.290833 14.6618 4.56718 18.9381 9.7599 18.9381C14.9526 18.9381 19.229 14.6618 19.229 9.46907C19.229 4.27636 15.0544 0 9.7599 0ZM7.01083 14.3563H4.669V7.43271H7.01083V14.3563ZM5.89082 6.41453C5.07628 6.41453 4.56717 5.90544 4.56717 5.19272C4.56717 4.47999 5.07628 3.9709 5.89082 3.9709C6.70537 3.9709 7.21445 4.47999 7.21445 5.19272C7.21445 5.90544 6.70537 6.41453 5.89082 6.41453ZM15.3599 14.3563H13.0181V10.5891C13.0181 9.67271 12.7126 9.0618 11.7963 9.0618C11.1853 9.0618 10.7781 9.46907 10.5745 9.87634C10.4726 9.97816 10.4726 10.2836 10.4726 10.4873V14.3563H8.33445C8.33445 14.3563 8.33445 8.04362 8.33445 7.43271H10.6763V8.45089C10.9817 7.9418 11.4908 7.33089 12.7126 7.33089C14.2399 7.33089 15.3599 8.34908 15.3599 10.4873V14.3563Z" fill="#3A3A3A"/>
</svg>
