<svg width="19" height="19" viewBox="0 0 19 19" fill="none" xmlns="http://www.w3.org/2000/svg">
<path d="M9.39996 17C13.7078 17 17.2 13.5078 17.2 9.20002C17.2 4.8922 13.7078 1.40002 9.39996 1.40002C5.09214 1.40002 1.59998 4.8922 1.59998 9.20002C1.59998 13.5078 5.09214 17 9.39996 17Z" fill="white"/>
<path d="M9.29999 0C4.09999 0 0 4.2 0 9.3C0 14.4 4.19999 18.6 9.29999 18.6C14.4 18.6 18.6 14.4 18.6 9.3C18.6 4.2 14.5 0 9.29999 0ZM6.60001 14.1H4.29999V7.3H6.60001V14.1ZM5.5 6.3C4.7 6.3 4.19998 5.8 4.19998 5.1C4.19998 4.4 4.7 3.9 5.5 3.9C6.3 3.9 6.79999 4.4 6.79999 5.1C6.79999 5.8 6.3 6.3 5.5 6.3ZM14.8 14.1H12.5V10.4C12.5 9.5 12.2 8.9 11.3 8.9C10.7 8.9 10.3 9.3 10.1 9.7C10 9.8 10 10.1 10 10.3V14.1H7.89999C7.89999 14.1 7.89999 7.9 7.89999 7.3H10.2V8.3C10.5 7.8 11 7.2 12.2 7.2C13.7 7.2 14.8 8.2 14.8 10.3V14.1Z" fill="#3A3A3A"/>
</svg>
