<svg width="49" height="18" viewBox="0 0 49 18" fill="none" xmlns="http://www.w3.org/2000/svg">
<g clip-path="url(#clip0)">
<path d="M7.54245 4.75663C7.16273 4.14066 6.64495 3.66157 6.00634 3.33648C5.38499 3.02849 4.69461 2.85739 3.93519 2.85739C3.48644 2.85739 3.05495 2.92583 2.65798 3.06271C2.26101 3.1996 1.89856 3.38781 1.58788 3.62735C1.00106 4.07222 0.586826 4.61975 0.345192 5.23572C0.120817 5.81747 0 6.38211 0 6.87831V12.8327H1.81226V6.89542C1.81226 6.48477 1.91582 6.10834 2.12293 5.73192C2.33005 5.35549 2.6062 5.08173 2.95139 4.85929C3.27932 4.65397 3.64178 4.55131 4.02149 4.55131H4.05601C4.57379 4.55131 5.00528 4.67108 5.33322 4.92773C5.69567 5.2015 5.9373 5.50948 6.09264 5.88591C6.24797 6.27945 6.33427 6.67298 6.33427 7.0323V12.8327H8.14653V6.94675C8.14653 6.5361 8.09475 6.14256 7.99119 5.78325C7.87038 5.40682 7.7323 5.06462 7.54245 4.75663Z" fill="#FFD400"/>
<path d="M12.3061 3.01141H10.5457V12.8156H12.3061V3.01141Z" fill="#FFD400"/>
<path d="M11.3914 0C11.098 0 10.8391 0.119772 10.6148 0.325095C10.4076 0.530418 10.3041 0.804183 10.3041 1.11217C10.3041 1.42015 10.4249 1.67681 10.632 1.86502C10.8219 2.03612 11.0462 2.13878 11.3051 2.173H11.3742L11.4432 2.15589C11.6848 2.12167 11.9092 2.03612 12.0991 1.89924L12.1681 1.84791C12.3925 1.64259 12.5133 1.36882 12.5133 1.09506C12.5306 0.427757 12.0991 0 11.3914 0Z" fill="#FFD400"/>
<path d="M16.5174 0.633057H14.7224V9.73572C14.7224 10.711 14.9986 11.481 15.5681 12.0114C16.1204 12.5589 16.8281 12.8156 17.6738 12.8156H19.6414V11.0532L17.9672 11.1045C17.7428 11.1045 17.5357 11.0703 17.3631 11.019C17.1733 10.9677 17.0179 10.8992 16.8971 10.8137L16.8799 10.7966C16.6555 10.6597 16.5692 10.2832 16.5347 9.99237V4.75663H19.6587V3.01138H16.5174V0.633057Z" fill="#FFD400"/>
<path d="M28.5474 8.07604C28.5474 8.36692 28.5128 8.62357 28.4265 8.88023C28.3403 9.15399 28.2022 9.42775 28.0468 9.68441C27.7534 10.1806 27.3565 10.557 26.8559 10.8479C26.597 11.0019 26.3209 11.1046 26.062 11.173C25.8031 11.2414 25.5097 11.2757 25.1817 11.2757L24.4223 11.173C23.8528 11.0019 23.3867 10.7452 23.0243 10.403C22.9898 10.3688 22.938 10.3346 22.9035 10.2833L29.8591 5.62928L29.6175 5.20152C29.2205 4.51711 28.6164 3.93536 27.8225 3.5076C27.4082 3.26806 26.9767 3.09696 26.5453 2.99429C26.1138 2.89163 25.6478 2.8403 25.1645 2.8403C24.2497 2.8403 23.3867 3.07985 22.6273 3.54182C21.8679 4.0038 21.2638 4.61977 20.8323 5.38973C20.6079 5.78327 20.4181 6.19391 20.2973 6.60456C20.1765 7.01521 20.1074 7.46007 20.1074 7.90494C20.1074 8.36692 20.1765 8.81179 20.2973 9.23954C20.4181 9.65019 20.5907 10.0608 20.8323 10.4544C21.3156 11.2243 21.9369 11.8403 22.7309 12.2852C23.5076 12.73 24.3878 12.9525 25.3371 12.9525C26.2001 12.9525 27.0113 12.7643 27.7534 12.3878C28.5128 12.0114 29.1515 11.4297 29.6347 10.6768C29.8764 10.2833 30.0662 9.87262 30.2043 9.44486C30.3424 9.01711 30.4114 8.55513 30.4114 8.05893V7.52851H28.5991V8.07604H28.5474ZM22.006 8.76045C21.9369 8.48669 21.9024 8.23004 21.9024 7.97338L21.9715 7.30608C22.1095 6.69011 22.3339 6.1768 22.6618 5.76616C22.9898 5.35551 23.3522 5.06464 23.7837 4.87642C24.2152 4.68821 24.6812 4.58555 25.1817 4.58555C25.6823 4.58555 26.1828 4.68821 26.6316 4.87642C26.8732 4.97908 27.063 5.09886 27.2356 5.23574L22.006 8.76045Z" fill="#FFD400"/>
<path d="M36.9873 2.82318H36.4868C36.0381 2.82318 35.6066 2.8574 35.1751 2.94295C34.7436 3.0285 34.3294 3.14828 33.9496 3.30227H33.9324C33.1039 3.66158 32.4308 4.20911 31.913 4.96196C31.378 5.74904 31.1018 6.72432 31.1018 7.87071C31.1018 8.48668 31.1881 9.05132 31.3607 9.58174C31.5333 10.1122 31.7749 10.557 32.0856 10.9506C32.6724 11.6863 33.3801 12.1996 34.1913 12.4734C34.968 12.73 35.7792 12.8669 36.6076 12.8669H37.0909L37.9711 12.7814V10.8479L37.298 11.019C37.2462 11.0361 37.1082 11.0532 36.7975 11.0532H36.5386C35.6929 11.0532 35.0025 10.9163 34.4674 10.6426C33.9496 10.3859 33.5872 10.0437 33.3456 9.58174C33.1902 9.30797 33.0694 9.0171 33.0004 8.74333C32.9313 8.48668 32.8795 8.17869 32.8795 7.87071C32.8795 7.25474 33.0004 6.6901 33.2593 6.1939C33.5009 5.71482 33.8806 5.32128 34.4157 5.03041C34.9507 4.72242 35.6583 4.56843 36.4868 4.56843C36.6249 4.56843 36.763 4.56843 36.901 4.58554C37.0564 4.60265 37.2117 4.61976 37.3498 4.63687L37.9539 4.70531V2.92584L37.4879 2.8574C37.3325 2.84029 37.1427 2.82318 36.9873 2.82318Z" fill="#FFD400"/>
<path d="M48.5686 6.03992C48.3269 5.44106 47.999 4.89353 47.5675 4.41445C47.136 3.93536 46.601 3.55893 45.9969 3.26806C45.3756 2.99429 44.6852 2.8403 43.943 2.8403C43.1318 2.8403 42.3897 3.0114 41.7511 3.31939C41.1297 3.64448 40.5774 4.05513 40.1632 4.58555C39.7489 5.09886 39.4383 5.64639 39.2312 6.22813C39.024 6.80988 38.9377 7.37452 38.9377 7.90494C38.9377 8.31559 38.9895 8.72623 39.0931 9.11977C39.1966 9.5133 39.3347 9.90684 39.5246 10.2833V10.3004C39.9215 11.0874 40.5084 11.7376 41.2678 12.2338C42.0272 12.7471 42.942 13.0038 43.943 13.0038C44.4781 13.0038 44.9613 12.9354 45.4101 12.7985C45.8588 12.6616 46.2731 12.4563 46.67 12.1996C47.4295 11.6692 47.999 11.0019 48.3615 10.2319C48.5513 9.8384 48.7067 9.44486 48.793 9.06844C48.8793 8.69201 48.931 8.31559 48.931 7.92205C48.931 7.28897 48.8102 6.65589 48.5686 6.03992ZM43.943 4.56844C44.2364 4.56844 44.5298 4.61977 44.806 4.68821C45.0822 4.77376 45.341 4.89353 45.5654 5.04753C46.0314 5.35551 46.4111 5.78327 46.7046 6.29658C46.9807 6.82699 47.136 7.35741 47.136 7.92205C47.136 8.41825 47.0152 8.94867 46.7736 9.47908C46.532 10.0095 46.1695 10.4373 45.6862 10.7966C45.203 11.1388 44.6507 11.3099 43.9775 11.3099C43.3217 11.3099 42.7694 11.1388 42.2861 10.8137C41.7856 10.4544 41.4231 10.0437 41.1642 9.51331C41.0262 9.23954 40.9399 8.96578 40.8708 8.72623C40.819 8.46958 40.7845 8.21292 40.7845 7.93916C40.7845 7.35741 40.9226 6.79277 41.1987 6.27946C41.4749 5.76616 41.8546 5.35551 42.3379 5.03042C42.7866 4.72243 43.3217 4.56844 43.943 4.56844Z" fill="#FFD400"/>
<path d="M1.32899 14.6293C1.20818 14.5608 1.0701 14.5437 0.914765 14.5437C0.845726 14.5437 0.776688 14.5437 0.707649 14.5608C0.638611 14.578 0.586832 14.5951 0.517794 14.6122C0.396977 14.6635 0.293419 14.7662 0.207121 14.8859C0.120823 15.0228 0.0863037 15.1768 0.0863037 15.3821V17.1787H0.345198V15.3821C0.345198 15.2281 0.396977 15.0742 0.483274 14.9544C0.517794 14.903 0.586832 14.8517 0.65587 14.8175C0.724909 14.7833 0.828466 14.7662 0.932024 14.7662C1.01832 14.7662 1.08736 14.7833 1.13914 14.8004C1.19092 14.8175 1.2427 14.8517 1.29448 14.8859C1.38077 14.9544 1.43255 15.0399 1.44981 15.1255C1.46707 15.211 1.48433 15.2966 1.48433 15.365C1.48433 15.4848 1.46707 15.5875 1.41529 15.673C1.36351 15.7586 1.29448 15.827 1.20818 15.8783C1.12188 15.9297 1.03558 15.9468 0.932024 15.9468H0.362457V16.1863H0.914765C0.983803 16.1863 1.0701 16.1692 1.13914 16.1521C1.20818 16.135 1.27722 16.1008 1.34625 16.0837C1.46707 16.0152 1.55337 15.9126 1.62241 15.8099C1.65693 15.7415 1.69145 15.673 1.70871 15.6046C1.72597 15.5361 1.74323 15.4677 1.74323 15.3821C1.74323 15.211 1.70871 15.057 1.63967 14.9202C1.55337 14.7833 1.44981 14.6806 1.32899 14.6293Z" fill="white"/>
<path d="M4.00427 15.6388C3.91797 15.5532 3.83167 15.4848 3.71085 15.4335C3.59003 15.3821 3.46922 15.3479 3.33114 15.3479C3.1758 15.3479 3.03773 15.3821 2.93417 15.4335C2.81335 15.4848 2.72705 15.5703 2.64076 15.673C2.55446 15.7757 2.50268 15.8783 2.46816 15.981C2.43364 16.0836 2.41638 16.1863 2.41638 16.289C2.41638 16.3574 2.43364 16.443 2.4509 16.5114C2.46816 16.5798 2.50268 16.6654 2.5372 16.7338C2.60624 16.8707 2.72705 17.0076 2.86513 17.0931C3.00321 17.1787 3.1758 17.23 3.36566 17.23C3.46922 17.23 3.55552 17.2129 3.64181 17.1958C3.72811 17.1787 3.79715 17.1274 3.86619 17.0931C4.00426 16.9905 4.10782 16.8707 4.17686 16.7338C4.21138 16.6654 4.2459 16.5798 4.26316 16.5114C4.28042 16.443 4.28042 16.3745 4.28042 16.3061C4.28042 16.1863 4.26316 16.0665 4.21138 15.9639C4.14234 15.827 4.09056 15.7243 4.00427 15.6388ZM4.00427 16.289C4.00427 16.3916 3.98701 16.5114 3.93523 16.6141C3.88345 16.7167 3.81441 16.8194 3.71085 16.8878C3.60729 16.9563 3.48648 16.9905 3.3484 16.9905C3.21032 16.9905 3.08951 16.9563 2.98595 16.8878C2.88239 16.8194 2.79609 16.7167 2.74431 16.6141C2.70979 16.5627 2.69254 16.4943 2.69254 16.443C2.67528 16.3916 2.67528 16.3403 2.67528 16.2719C2.67528 16.1521 2.7098 16.0323 2.76157 15.9296C2.81335 15.827 2.89965 15.7414 3.00321 15.673C3.10677 15.6046 3.22758 15.5703 3.3484 15.5703C3.41744 15.5703 3.46922 15.5874 3.53826 15.6046C3.59003 15.6217 3.64181 15.6559 3.69359 15.673C3.79715 15.7414 3.86619 15.827 3.93523 15.9296C3.96975 16.0665 4.00427 16.1692 4.00427 16.289Z" fill="white"/>
<path d="M7.16278 16.597C7.16278 16.6654 7.14552 16.7167 7.12826 16.7681C7.111 16.8194 7.07648 16.8536 7.04196 16.905C7.00744 16.9392 6.95566 16.9734 6.92114 16.9905C6.8521 17.0247 6.76581 17.0247 6.67951 17.0076C6.64499 16.9905 6.61047 16.9905 6.59321 16.9734C6.54143 16.9392 6.48965 16.905 6.45513 16.8536C6.43787 16.8194 6.42061 16.7852 6.40336 16.751C6.3861 16.6996 6.3861 16.6483 6.3861 16.6141V15.3821H6.14446V16.597C6.14446 16.6654 6.1272 16.7167 6.10994 16.7681C6.09268 16.8194 6.05816 16.8536 6.02364 16.8878C5.93735 16.9563 5.85105 17.0076 5.74749 17.0076C5.69571 17.0076 5.64393 16.9905 5.60941 16.9734C5.55764 16.9563 5.52312 16.9221 5.4886 16.8878C5.45408 16.8536 5.41956 16.8023 5.38504 16.7681C5.36778 16.7167 5.35052 16.6654 5.35052 16.597V15.3821H5.10889V16.6141C5.10889 16.6825 5.12615 16.7339 5.14341 16.8023C5.16067 16.8536 5.17793 16.905 5.21244 16.9563C5.28148 17.0589 5.35052 17.1274 5.45408 17.1616C5.54038 17.2129 5.64393 17.23 5.74749 17.23C5.98913 17.23 6.16172 17.1445 6.26528 16.9563C6.36884 17.1274 6.54143 17.23 6.78307 17.23C6.90388 17.23 7.0247 17.1958 7.111 17.1445C7.21456 17.0932 7.28359 17.0076 7.33537 16.905C7.38715 16.8023 7.40441 16.6996 7.40441 16.597V15.3993H7.16278V16.597Z" fill="white"/>
<path d="M9.90704 16.3232C9.90704 16.3916 9.88978 16.443 9.87252 16.4943C9.85526 16.5456 9.82074 16.6141 9.78623 16.6654C9.71719 16.7681 9.64815 16.8536 9.52733 16.9049C9.47555 16.9392 9.42377 16.9563 9.35474 16.9734C9.30296 16.9905 9.23392 16.9905 9.16488 16.9905L9.00954 16.9734C8.88873 16.9392 8.78517 16.8878 8.71613 16.8023C8.62983 16.7338 8.57805 16.6483 8.54354 16.5627C8.50902 16.4601 8.4745 16.3745 8.4745 16.289L8.49176 16.1521C8.52628 16.0152 8.56079 15.9125 8.62983 15.827C8.69887 15.7414 8.78517 15.673 8.87147 15.6388C9.06132 15.5532 9.2857 15.5532 9.45829 15.6388C9.52733 15.673 9.59637 15.7072 9.63089 15.7585L8.52628 16.4943L8.68161 16.6825L9.99334 15.8099L10.0106 15.7928C9.94156 15.673 9.82074 15.5703 9.68267 15.4848C9.59637 15.4335 9.52733 15.4163 9.44103 15.3821C9.35474 15.365 9.26844 15.3479 9.18214 15.3479C9.00954 15.3479 8.85421 15.3992 8.71613 15.4848C8.57805 15.5703 8.45724 15.6901 8.3882 15.827C8.33642 15.8954 8.31916 15.981 8.28464 16.0494C8.26738 16.1179 8.25012 16.2034 8.25012 16.289C8.25012 16.3745 8.26738 16.4601 8.28464 16.5285C8.3019 16.6141 8.33642 16.6825 8.3882 16.7509C8.4745 16.8878 8.59531 17.0076 8.73339 17.0931C8.87147 17.1787 9.04406 17.2129 9.21666 17.2129C9.372 17.2129 9.52733 17.1787 9.66541 17.1103C9.80349 17.0418 9.9243 16.9392 10.0106 16.8023C10.0624 16.7338 10.0969 16.6483 10.1142 16.5798C10.1314 16.4943 10.1487 16.4087 10.1487 16.3232V16.2719H9.90704V16.3232Z" fill="white"/>
<path d="M11.2015 15.6046V15.3992H10.9598V17.2129H11.2015V16.2376C11.2015 16.1863 11.2015 16.1179 11.2187 16.0665C11.236 16.0152 11.2533 15.9639 11.2705 15.9125C11.3223 15.827 11.3741 15.7585 11.4604 15.7072C11.5294 15.6559 11.6157 15.6388 11.702 15.6388L11.8573 15.6559V15.4163H11.6847C11.4949 15.3821 11.3223 15.4506 11.2015 15.6046Z" fill="white"/>
<path d="M12.9274 15.3821H12.6858V17.1958H12.9274V15.3821Z" fill="white"/>
<path d="M12.7894 14.8004C12.7548 14.8004 12.7031 14.8175 12.6858 14.8517C12.6513 14.8859 12.634 14.9202 12.634 14.9715C12.634 15.0228 12.6513 15.057 12.6858 15.0741C12.7203 15.1084 12.7548 15.1084 12.7894 15.1255C12.8239 15.1255 12.8584 15.1084 12.8929 15.0741C12.9274 15.0399 12.9447 15.0057 12.9447 14.9715C12.962 14.8688 12.8929 14.8004 12.7894 14.8004Z" fill="white"/>
<path d="M15.3437 15.6901C15.2747 15.5703 15.1884 15.4848 15.0676 15.4335C14.9468 15.3821 14.8259 15.3479 14.6879 15.3479C14.6016 15.3479 14.5325 15.365 14.4462 15.3821C14.3772 15.3992 14.3082 15.4335 14.2564 15.4848C14.1528 15.5703 14.0665 15.673 14.032 15.7757C13.9975 15.8954 13.9802 15.9981 13.9802 16.0836V17.1958H14.2219V16.0836C14.2219 15.9981 14.2391 15.9125 14.2909 15.827C14.3427 15.7414 14.3945 15.6901 14.4635 15.6388C14.5325 15.5874 14.6188 15.5703 14.7051 15.5703C14.8087 15.5703 14.9122 15.6046 14.9813 15.6559C15.0503 15.7072 15.1194 15.7757 15.1366 15.8612C15.1711 15.9468 15.1884 16.0323 15.1884 16.1008V17.1787H15.43V16.0836C15.43 16.0152 15.4128 15.9297 15.3955 15.8783C15.4128 15.827 15.3783 15.7585 15.3437 15.6901Z" fill="white"/>
<path d="M17.7946 15.5875C17.7083 15.5019 17.622 15.4506 17.5012 15.3992C17.2941 15.3137 17.0697 15.3137 16.8626 15.3992C16.759 15.4335 16.6727 15.4848 16.5864 15.5703C16.5001 15.6388 16.4311 15.7415 16.3793 15.8441C16.3275 15.9468 16.293 16.0837 16.2758 16.2376C16.2758 16.3745 16.293 16.5114 16.3448 16.6483C16.3966 16.7681 16.4656 16.8707 16.5347 16.9563C16.6209 17.0418 16.7072 17.1103 16.8108 17.1616C16.9144 17.2129 17.0179 17.23 17.1387 17.23C17.3631 17.23 17.553 17.1616 17.7256 17.0076L17.7428 16.9905V16.6483L17.6565 16.751C17.5702 16.8365 17.4839 16.905 17.4149 16.9392C17.2768 17.0076 17.1215 17.0247 17.0007 16.9734C16.9489 16.9563 16.8971 16.9392 16.8453 16.905C16.7418 16.8365 16.6727 16.751 16.6209 16.6312C16.5692 16.5285 16.5347 16.4088 16.5347 16.289C16.5519 16.135 16.5864 16.0152 16.6382 15.9126C16.7072 15.8099 16.7763 15.7415 16.8798 15.6901C17.0697 15.5875 17.2941 15.5875 17.4839 15.6901C17.5875 15.7415 17.6565 15.827 17.7256 15.9297C17.7946 16.0323 17.8119 16.1521 17.8119 16.3061V17.0932C17.8119 17.23 17.7946 17.3327 17.7601 17.4354C17.7256 17.5209 17.6738 17.5894 17.622 17.6578C17.553 17.7091 17.4839 17.7434 17.4149 17.7776C17.2768 17.8289 17.087 17.8289 16.9316 17.7947C16.8626 17.7776 16.7935 17.7605 16.7245 17.7434L16.6727 17.7262L16.6037 17.9487L16.6555 17.9658C16.8108 18.0171 16.9834 18.0513 17.156 18.0513C17.3286 18.0513 17.4839 18.0171 17.622 17.9658C17.7601 17.8973 17.8809 17.8118 17.9672 17.6749C18.0535 17.538 18.088 17.3669 18.088 17.1787V16.3403C18.088 16.1863 18.0708 16.0494 18.019 15.9297C17.9499 15.7757 17.8809 15.673 17.7946 15.5875Z" fill="white"/>
<path d="M22.1096 15.3308C22.1096 15.3821 22.1096 15.4335 22.0923 15.4848C22.0751 15.5361 22.0578 15.5703 22.0405 15.6217C21.9888 15.7072 21.9197 15.7757 21.8334 15.827C21.7471 15.8783 21.6436 15.8954 21.5227 15.8954C21.3847 15.8954 21.2639 15.8441 21.143 15.7414C21.0222 15.6388 20.9704 15.5019 20.9704 15.3308V14.5779H20.7115V15.3308C20.7115 15.4677 20.7461 15.6046 20.8151 15.7243C20.8841 15.8441 20.9704 15.9468 21.0913 16.0323C21.1948 16.1008 21.2984 16.135 21.4365 16.1521V17.1958H21.6953V16.1521C21.7816 16.1521 21.8852 16.1179 21.9715 16.0665C22.0923 15.9981 22.1786 15.9125 22.2649 15.7928C22.3512 15.673 22.3857 15.519 22.3857 15.3479V14.5951H22.1268V15.3308H22.1096Z" fill="white"/>
<path d="M24.9056 15.6388C24.8193 15.5532 24.733 15.4848 24.6122 15.4335C24.4914 15.3821 24.3706 15.3479 24.2325 15.3479C24.0772 15.3479 23.9391 15.3821 23.8355 15.4335C23.7147 15.4848 23.6284 15.5703 23.5421 15.673C23.4558 15.7757 23.404 15.8783 23.3695 15.981C23.335 16.0836 23.3177 16.1863 23.3177 16.289C23.3177 16.3574 23.335 16.443 23.3523 16.5114C23.3695 16.5798 23.404 16.6654 23.4386 16.7338C23.5076 16.8707 23.6284 17.0076 23.7665 17.0931C23.9046 17.1787 24.0772 17.23 24.267 17.23C24.3706 17.23 24.4569 17.2129 24.5432 17.1958C24.6295 17.1787 24.6985 17.1274 24.7676 17.0931C24.9056 16.9905 25.0092 16.8707 25.0782 16.7338C25.1127 16.6654 25.1473 16.5798 25.1645 16.5114C25.1818 16.443 25.1818 16.3745 25.1818 16.3061C25.1818 16.1863 25.1645 16.0665 25.1127 15.9639C25.061 15.827 24.9919 15.7243 24.9056 15.6388ZM24.9056 16.289C24.9056 16.3916 24.8884 16.5114 24.8366 16.6141C24.7848 16.7167 24.7158 16.8194 24.6122 16.8878C24.5087 16.9563 24.3878 16.9905 24.2498 16.9905C24.1117 16.9905 23.9909 16.9563 23.8873 16.8878C23.7838 16.8194 23.6975 16.7167 23.6457 16.6141C23.6112 16.5627 23.5939 16.4943 23.5939 16.443C23.5766 16.3916 23.5766 16.3403 23.5766 16.2719C23.5766 16.1521 23.6112 16.0323 23.6629 15.9296C23.7147 15.827 23.801 15.7414 23.9046 15.673C24.0081 15.6046 24.1289 15.5703 24.2498 15.5703C24.3188 15.5703 24.3706 15.5874 24.4396 15.6046C24.4914 15.6217 24.5432 15.6559 24.595 15.673C24.6985 15.7414 24.7676 15.827 24.8366 15.9296C24.8884 16.0665 24.9056 16.1692 24.9056 16.289Z" fill="white"/>
<path d="M27.3392 16.4943C27.3392 16.5628 27.3219 16.6312 27.3047 16.6996C27.2702 16.7681 27.2357 16.8194 27.2011 16.8536C27.0458 17.0076 26.8387 17.0418 26.6316 16.9221C26.5625 16.8878 26.4935 16.8194 26.4417 16.751C26.4072 16.7167 26.3899 16.6654 26.3727 16.6312C26.3554 16.597 26.3554 16.5456 26.3554 16.4943V15.3821H26.1138V16.5114C26.1138 16.5799 26.131 16.6483 26.1483 16.7167C26.1655 16.7852 26.2001 16.8365 26.2346 16.8878C26.3036 16.9905 26.4072 17.0761 26.5107 17.1274C26.6143 17.1787 26.7351 17.2129 26.8559 17.2129C26.9768 17.2129 27.0976 17.1787 27.2184 17.1274C27.3392 17.0761 27.4255 16.9905 27.4945 16.8878C27.5291 16.8365 27.5636 16.7681 27.5808 16.6996C27.5981 16.6312 27.6154 16.5628 27.6154 16.4943V15.3821H27.3737V16.4943H27.3392Z" fill="white"/>
<path d="M28.8581 15.6046V15.3992H28.6165V17.2129H28.8581V16.2376C28.8581 16.1863 28.8581 16.1179 28.8753 16.0665C28.8926 16.0152 28.9099 15.9639 28.9271 15.9125C28.9789 15.827 29.0307 15.7585 29.117 15.7072C29.186 15.6559 29.2723 15.6388 29.3586 15.6388L29.5139 15.6559V15.4163H29.3413C29.1515 15.3821 28.9789 15.4506 28.8581 15.6046Z" fill="white"/>
<path d="M33.4491 14.8004C33.3628 14.7148 33.2765 14.6464 33.1557 14.6122C33.0348 14.5608 32.914 14.5437 32.7587 14.5437C32.5516 14.5437 32.379 14.5951 32.2409 14.6806C32.1028 14.7662 31.9993 14.8859 31.9302 15.0057C31.8612 15.1426 31.8267 15.2795 31.8267 15.4335V17.1958H32.0856V15.3992C32.0856 15.2624 32.1201 15.1597 32.1719 15.057C32.2236 14.9715 32.3099 14.903 32.4135 14.8517C32.517 14.8004 32.6379 14.7833 32.7587 14.7833C32.8968 14.7833 33.0176 14.8175 33.1211 14.8688C33.2247 14.9202 33.2937 14.9886 33.3455 15.0741C33.38 15.1255 33.3973 15.1768 33.4145 15.2281C33.4318 15.2795 33.4318 15.3308 33.4318 15.3821V15.7414H32.1373V15.981H33.4318V17.2129H33.6907V15.4335C33.6907 15.3137 33.6734 15.1939 33.6217 15.0741C33.5871 14.9715 33.5181 14.8859 33.4491 14.8004Z" fill="white"/>
<path d="M36.8148 15.6388C36.7457 15.5361 36.6767 15.4677 36.5731 15.4163C36.366 15.3137 36.1071 15.3308 35.9173 15.4506C35.8482 15.4848 35.7965 15.5532 35.7619 15.6046C35.7274 15.5361 35.6756 15.4848 35.6066 15.4506C35.4167 15.3479 35.1751 15.3308 34.968 15.4163C34.8644 15.4677 34.7954 15.5361 34.7264 15.6217C34.6918 15.673 34.6746 15.7243 34.6573 15.7757C34.6401 15.827 34.6228 15.8954 34.6228 15.9468V17.1787H34.8644V15.981C34.8817 15.8783 34.899 15.8099 34.9335 15.7414C34.968 15.673 35.0198 15.6388 35.0715 15.6046C35.1924 15.5361 35.3304 15.5532 35.4513 15.6046C35.5203 15.6388 35.5548 15.6901 35.6066 15.7414C35.6411 15.8099 35.6584 15.8783 35.6584 15.9639V17.1616H35.9V15.9468C35.9 15.9125 35.9 15.8783 35.9173 15.8441C35.9345 15.8099 35.9345 15.7757 35.969 15.7414C36.0036 15.6901 36.0553 15.6388 36.1071 15.6046C36.2279 15.5532 36.3488 15.5532 36.4868 15.6046C36.5386 15.6388 36.5904 15.673 36.6249 15.7414C36.6422 15.7757 36.6594 15.8099 36.6767 15.8441C36.6939 15.8783 36.6939 15.9125 36.6939 15.9468V17.1616H36.9356V15.9468C36.9356 15.8783 36.9183 15.8099 36.9011 15.7586C36.8838 15.7414 36.8493 15.673 36.8148 15.6388Z" fill="white"/>
<path d="M39.2139 15.4848C39.0758 15.3992 38.9377 15.3479 38.7996 15.3479C38.7306 15.3479 38.6615 15.3479 38.6098 15.365C38.558 15.3821 38.5062 15.3821 38.4544 15.3992C38.3509 15.4334 38.2646 15.5019 38.1783 15.5703L38.161 15.5874V15.9125L38.2473 15.8099C38.3164 15.7414 38.3854 15.673 38.4717 15.6388C38.6098 15.5703 38.7651 15.5532 38.9032 15.6045C38.955 15.6217 39.0067 15.6559 39.0585 15.6901C39.1621 15.7585 39.2311 15.8441 39.2829 15.9468C39.3347 16.0494 39.3692 16.1692 39.3692 16.2718V16.3403C39.3519 16.4601 39.3174 16.5798 39.2484 16.6654C39.1793 16.768 39.093 16.8365 39.0067 16.8878C38.8169 17.0076 38.6098 16.9905 38.4199 16.8878C38.3164 16.8365 38.2473 16.7509 38.1783 16.6312C38.1092 16.5285 38.092 16.4087 38.092 16.2718V14.5608H37.8503V16.2718C37.8503 16.4258 37.8849 16.5798 37.9539 16.7167C38.0229 16.8536 38.1265 16.9734 38.2646 17.076C38.3336 17.1274 38.4026 17.1616 38.4889 17.1787C38.558 17.1958 38.6443 17.2129 38.7306 17.2129C38.8341 17.2129 38.9377 17.1958 39.0758 17.1445C39.2138 17.1103 39.3347 17.0076 39.4382 16.8878C39.5073 16.8194 39.5418 16.7338 39.5763 16.6483C39.6108 16.5627 39.6281 16.443 39.6281 16.3403V16.2718C39.6281 16.1007 39.5936 15.9468 39.5073 15.8099C39.4382 15.6901 39.3347 15.5703 39.2139 15.4848Z" fill="white"/>
<path d="M40.7154 14.8004C40.6809 14.8004 40.6291 14.8175 40.6118 14.8517C40.5773 14.8859 40.5601 14.9202 40.5601 14.9715C40.5601 15.0228 40.5773 15.057 40.6118 15.0741C40.6464 15.1084 40.6809 15.1084 40.7154 15.1255C40.7499 15.1255 40.7844 15.1084 40.819 15.0741C40.8535 15.0399 40.8707 15.0057 40.8707 14.9715C40.8707 14.8688 40.819 14.8004 40.7154 14.8004Z" fill="white"/>
<path d="M40.8362 15.3821H40.5946V17.1958H40.8362V15.3821Z" fill="white"/>
<path d="M42.1307 14.9201H41.889V16.6483C41.889 16.8194 41.9408 16.9563 42.0444 17.0589C42.1479 17.1616 42.2688 17.1958 42.4241 17.1958H42.752V16.9563L42.4759 16.9734C42.4241 16.9734 42.3896 16.9734 42.3378 16.9563C42.3033 16.9391 42.2688 16.922 42.2342 16.9049C42.1825 16.8707 42.1479 16.8023 42.1479 16.6996V15.6217H42.752V15.3821H42.1479V14.9201H42.1307Z" fill="white"/>
<path d="M43.7186 14.8004C43.6841 14.8004 43.6323 14.8175 43.615 14.8517C43.5805 14.8859 43.5632 14.9202 43.5632 14.9715C43.5632 15.0228 43.5805 15.057 43.615 15.0741C43.6495 15.1084 43.6841 15.1084 43.7186 15.1255C43.7531 15.1255 43.7876 15.1084 43.8221 15.0741C43.8566 15.0399 43.8739 15.0057 43.8739 14.9715C43.8912 14.8688 43.8394 14.8004 43.7186 14.8004Z" fill="white"/>
<path d="M43.8566 15.3821H43.615V17.1958H43.8566V15.3821Z" fill="white"/>
<path d="M46.4111 15.6388C46.3248 15.5532 46.2385 15.4848 46.1177 15.4335C45.9969 15.3821 45.8761 15.3479 45.738 15.3479C45.5827 15.3479 45.4446 15.3821 45.341 15.4335C45.2202 15.4848 45.1339 15.5703 45.0476 15.673C44.9613 15.7757 44.9095 15.8783 44.875 15.981C44.8405 16.0836 44.8232 16.1863 44.8232 16.289C44.8232 16.3574 44.8405 16.443 44.8578 16.5114C44.875 16.5798 44.9095 16.6654 44.9441 16.7338C45.0131 16.8707 45.1339 17.0076 45.272 17.0931C45.4101 17.1787 45.5827 17.23 45.7725 17.23C45.8761 17.23 45.9624 17.2129 46.0487 17.1958C46.135 17.1787 46.204 17.1274 46.273 17.0931C46.4111 16.9905 46.5147 16.8707 46.5837 16.7338C46.6182 16.6654 46.6528 16.5798 46.67 16.5114C46.6873 16.443 46.6873 16.3745 46.6873 16.3061C46.6873 16.1863 46.67 16.0665 46.6182 15.9639C46.5492 15.827 46.4974 15.7243 46.4111 15.6388ZM46.4111 16.289C46.4111 16.3916 46.3939 16.5114 46.3421 16.6141C46.2903 16.7167 46.2213 16.8194 46.1177 16.8878C46.0142 16.9563 45.8933 16.9905 45.7553 16.9905C45.6172 16.9905 45.4964 16.9563 45.3928 16.8878C45.2892 16.8194 45.203 16.7167 45.1512 16.6141C45.1167 16.5627 45.0994 16.4943 45.0994 16.443C45.0821 16.3916 45.0821 16.3403 45.0821 16.2719C45.0821 16.1521 45.1167 16.0323 45.1684 15.9296C45.2202 15.827 45.3065 15.7414 45.4101 15.673C45.5136 15.6046 45.6344 15.5703 45.7553 15.5703C45.8243 15.5703 45.8761 15.5874 45.9451 15.6046C45.9969 15.6217 46.0487 15.6559 46.1004 15.673C46.204 15.7414 46.273 15.827 46.3421 15.9296C46.3939 16.0665 46.4111 16.1692 46.4111 16.289Z" fill="white"/>
<path d="M48.9827 15.8783C48.9654 15.8099 48.9309 15.7414 48.8964 15.6901C48.8274 15.5703 48.7411 15.4848 48.6203 15.4335C48.4994 15.3821 48.3786 15.3479 48.2405 15.3479C48.1542 15.3479 48.0852 15.365 47.9989 15.3821C47.9299 15.3992 47.8608 15.4335 47.809 15.4848C47.7055 15.5703 47.6192 15.673 47.5847 15.7757C47.5501 15.8783 47.5156 15.981 47.5156 16.0836V17.1958H47.7573V16.0836C47.7573 15.9981 47.7745 15.9125 47.8263 15.827C47.8781 15.7414 47.9299 15.6901 47.9989 15.6388C48.0679 15.5874 48.1542 15.5703 48.2405 15.5703C48.3441 15.5703 48.4477 15.6046 48.5167 15.6559C48.5857 15.7072 48.6548 15.7757 48.672 15.8612C48.7065 15.9468 48.7238 16.0323 48.7238 16.1008V17.1787H48.9654V16.0836C49 16.0152 49 15.9468 48.9827 15.8783Z" fill="white"/>
</g>
<defs>
<clipPath id="clip0">
<rect width="49" height="18" fill="white"/>
</clipPath>
</defs>
</svg>
