<svg width="54" height="13" viewBox="0 0 54 13" fill="none" xmlns="http://www.w3.org/2000/svg">
<path d="M4.26831 6.80339V8.30376C5.40652 8.30376 6.493 7.864 7.29492 7.08795C8.09684 6.31189 8.56247 5.25129 8.56247 4.13895H7.03624C7.03624 4.83739 6.75167 5.53584 6.23431 6.02734C5.69107 6.51884 4.99263 6.80339 4.26831 6.80339Z" fill="#3BE081"/>
<path d="M4.26829 10.9165C3.54398 10.9165 2.84553 10.6319 2.32816 10.1404C1.81079 9.64893 1.52624 8.97636 1.52624 8.27791C1.52624 7.57946 1.81079 6.90688 2.32816 6.41538C2.84553 5.92388 3.54398 5.63933 4.26829 5.63933V4.16483C3.69919 4.16483 3.15595 4.2683 2.63858 4.47525C2.12122 4.68219 1.65559 4.99262 1.26756 5.35477C0.879533 5.7428 0.569103 6.18256 0.336287 6.69993C0.129339 7.19143 0 7.73467 0 8.27791C0 8.82115 0.103477 9.36438 0.310424 9.85588C0.517372 10.3474 0.827787 10.813 1.24168 11.201C1.62971 11.5891 2.09534 11.8995 2.61271 12.1064C3.13007 12.3134 3.67332 12.4169 4.24243 12.4169V10.9165H4.26829Z" fill="#0037FF"/>
<path d="M4.26831 10.9165V12.391C5.40652 12.391 6.46712 11.9512 7.26904 11.1752C8.07097 10.3991 8.51074 9.36439 8.51074 8.25204H6.9845C6.9845 8.95049 6.69995 9.62307 6.18258 10.1146C5.66521 10.6319 4.99263 10.9165 4.26831 10.9165Z" fill="#00CCFF"/>
<path d="M4.26831 2.66445V4.13895C5.40652 4.13895 6.46712 3.69919 7.26904 2.92313C8.07097 2.14708 8.51074 1.11234 8.51074 0H6.9845C6.9845 0.698448 6.69995 1.37103 6.18258 1.86253C5.66521 2.3799 4.99263 2.66445 4.26831 2.66445Z" fill="#861DFF"/>
<path d="M8.53662 2.66445V4.13895C9.67483 4.13895 10.7354 3.69919 11.5374 2.92313C12.3393 2.14708 12.7791 1.11234 12.7791 0H11.2528C11.2528 0.698448 10.9683 1.37103 10.4509 1.86253C9.95939 2.3799 9.26094 2.66445 8.53662 2.66445Z" fill="#FF8110"/>
<path d="M19.8928 6.18256H20.6689L20.8499 6.59646C20.9534 6.51886 21.0569 6.44125 21.1862 6.36365C21.3156 6.31191 21.4449 6.26017 21.5743 6.20843C21.7295 6.1567 21.9106 6.13083 22.0658 6.13083C22.3244 6.13083 22.5831 6.18257 22.816 6.28604C23.0488 6.38951 23.2816 6.54472 23.4368 6.7258C23.6179 6.93275 23.7731 7.1397 23.8766 7.39838C24.0835 7.94162 24.0835 8.53659 23.8766 9.07983C23.7731 9.33852 23.6179 9.54546 23.4368 9.75241C23.2557 9.93349 23.0488 10.0887 22.816 10.1922C22.5831 10.2956 22.3244 10.3474 22.0658 10.3474C21.9106 10.3474 21.7553 10.3215 21.6001 10.2956C21.4708 10.2698 21.3673 10.218 21.2638 10.1663C21.1604 10.1146 21.0569 10.037 20.9793 9.95936V11.7443H19.9187V6.18256H19.8928ZM21.9364 9.36438C22.0658 9.36438 22.221 9.33851 22.3503 9.28678C22.4797 9.23504 22.609 9.15744 22.6866 9.05396C22.8936 8.84702 22.997 8.58833 22.997 8.22617C22.997 8.07096 22.9712 7.91575 22.9194 7.78641C22.8677 7.65707 22.7901 7.52772 22.6866 7.39838C22.5831 7.29491 22.4797 7.2173 22.3503 7.16557C22.221 7.11383 22.0916 7.08796 21.9364 7.08796C21.8071 7.08796 21.6519 7.11383 21.5225 7.16557C21.3932 7.2173 21.2638 7.29491 21.1862 7.39838C20.9793 7.60533 20.8758 7.86401 20.8758 8.22617C20.8758 8.58833 20.9793 8.84702 21.1862 9.05396C21.2897 9.15744 21.3932 9.23504 21.5225 9.28678C21.6519 9.36438 21.8071 9.39025 21.9364 9.36438Z" fill="white"/>
<path d="M26.6186 10.3732C26.4117 10.3732 26.2306 10.3474 26.0495 10.2698C25.8684 10.1922 25.7132 10.0887 25.5839 9.95935C25.4545 9.83001 25.351 9.67479 25.2993 9.49371C25.2217 9.28677 25.1958 9.07982 25.1958 8.87287V7.11382H24.5491V6.26016H24.8337C25.17 6.26016 25.351 6.10495 25.351 5.76866V5.19955H26.2823V6.18255H27.2136V7.11382H26.2823V8.82114C26.2823 8.89874 26.2823 8.95048 26.3082 9.02808C26.3341 9.10569 26.3599 9.15743 26.4116 9.20916C26.4634 9.2609 26.5151 9.31264 26.5927 9.3385C26.6703 9.36437 26.7221 9.39024 26.7997 9.39024C26.8255 9.39024 26.8514 9.39024 26.8773 9.39024C26.929 9.39024 26.9549 9.39024 27.0066 9.39024C27.0325 9.39024 27.0584 9.39024 27.0842 9.36437C27.1101 9.36437 27.136 9.3385 27.1618 9.3385V10.2439C27.1101 10.2698 27.0584 10.2698 27.0066 10.2956C26.8514 10.3474 26.7221 10.3732 26.6186 10.3732Z" fill="white"/>
<path d="M28.5846 5.69105C28.4294 5.69105 28.3001 5.63931 28.1966 5.56171C28.0931 5.4841 28.0155 5.35476 27.9638 5.22542C27.9379 5.09608 27.9638 4.94087 28.0155 4.83739C28.0931 4.70805 28.1966 4.60458 28.3259 4.55284C28.4553 4.5011 28.6105 4.5011 28.7398 4.52697C28.8692 4.57871 28.9985 4.65631 29.0761 4.75979C29.1537 4.86326 29.2054 5.01847 29.1796 5.14781C29.1537 5.27715 29.102 5.4065 28.9985 5.50997C28.9468 5.56171 28.8692 5.61344 28.8174 5.63931C28.7398 5.69105 28.6622 5.69105 28.5846 5.69105ZM28.0414 6.18255H29.102V10.2956H28.0414V6.18255Z" fill="white"/>
<path d="M30.1109 6.18256H30.8869L31.068 6.59646C31.1456 6.51886 31.2491 6.44125 31.3526 6.36365C31.456 6.31191 31.5595 6.26017 31.663 6.20843C31.7923 6.1567 31.9475 6.13083 32.0769 6.13083C32.258 6.13083 32.4649 6.1567 32.6201 6.20843C32.7495 6.26017 32.8788 6.31191 33.0081 6.38951C33.1116 6.46712 33.2151 6.54472 33.2668 6.6482C33.3703 6.54472 33.4738 6.46712 33.6031 6.38951C33.7325 6.31191 33.8618 6.26017 33.9911 6.20843C34.1464 6.1567 34.3274 6.13083 34.5085 6.13083C34.9741 6.13083 35.3363 6.28604 35.6209 6.57059C35.9054 6.85514 36.0347 7.29491 36.0347 7.83815V10.2956H34.9741V7.91575C34.9741 7.7088 34.9224 7.50186 34.7672 7.32078C34.7155 7.26904 34.6378 7.2173 34.5602 7.16557C34.4826 7.1397 34.405 7.11383 34.3274 7.11383C34.2498 7.11383 34.1464 7.11383 34.0688 7.1397C33.9911 7.16557 33.9135 7.2173 33.8618 7.26904C33.8359 7.29491 33.8101 7.32078 33.7842 7.32078C33.629 7.47599 33.5514 7.68294 33.5772 7.91575V10.2956H32.5166V7.91575C32.5166 7.7088 32.4649 7.50186 32.3097 7.32078C32.258 7.26904 32.1803 7.2173 32.1027 7.16557C32.0251 7.11383 31.9475 7.11383 31.8699 7.11383C31.7923 7.11383 31.6889 7.11383 31.6112 7.1397C31.5336 7.16557 31.456 7.2173 31.4043 7.26904C31.3784 7.29491 31.3526 7.32078 31.3267 7.32078C31.1715 7.47599 31.0939 7.68294 31.1197 7.91575V10.2956H30.0591V6.18256H30.1109Z" fill="white"/>
<path d="M37.6127 5.69107C37.4575 5.69107 37.3282 5.63934 37.2247 5.56173C37.1212 5.48412 37.0436 5.35478 36.9919 5.22544C36.966 5.0961 36.9919 4.94089 37.0436 4.81154C37.1212 4.6822 37.2247 4.57873 37.3541 4.52699C37.4834 4.47526 37.6386 4.47525 37.768 4.50112C37.8973 4.52699 38.0266 4.63046 38.1042 4.73394C38.1818 4.83741 38.2336 4.99262 38.2077 5.12196C38.1818 5.25131 38.1301 5.38065 38.0266 5.48412C37.9749 5.53586 37.8973 5.5876 37.8456 5.61347C37.7679 5.69107 37.6904 5.69107 37.6127 5.69107ZM37.0436 6.18257H38.1042V10.2957H37.0436V6.18257Z" fill="white"/>
<path d="M38.9061 9.46786L40.7428 7.19143H38.9061V6.20844H42.0879V7.06209L40.2513 9.36438H42.1914V10.3474H38.9061V9.46786Z" fill="white"/>
<path d="M44.8818 10.3733C44.5972 10.3733 44.3126 10.3215 44.054 10.1922C43.7953 10.0887 43.5625 9.93351 43.3814 9.72656C43.1744 9.54548 43.0192 9.31267 42.9158 9.05398C42.8123 8.7953 42.7347 8.51074 42.7347 8.22619C42.7347 7.94164 42.7864 7.65709 42.9158 7.3984C43.0192 7.13972 43.1744 6.93277 43.3814 6.72582C43.5625 6.54474 43.7953 6.38953 44.054 6.26019C44.3126 6.15672 44.5713 6.10498 44.8559 6.10498C45.1404 6.10498 45.3991 6.15672 45.6578 6.26019C45.8906 6.36366 46.1234 6.51887 46.3045 6.69995C46.4856 6.88103 46.6408 7.11385 46.7443 7.37253C46.8478 7.65709 46.8995 7.94164 46.8995 8.22619C46.8995 8.27793 46.8995 8.32967 46.8995 8.35553C46.8995 8.40727 46.8736 8.43314 46.8736 8.48488C46.8736 8.53661 46.8736 8.58835 46.8478 8.61422H43.8988C43.9505 8.82117 44.054 9.00224 44.2092 9.13159C44.3903 9.2868 44.6231 9.33854 44.8559 9.33854C44.9852 9.33854 45.0887 9.33853 45.218 9.2868C45.2956 9.26093 45.3991 9.23506 45.4509 9.18333C45.5285 9.13159 45.5802 9.07985 45.6319 9.02811H46.7443C46.6926 9.18332 46.5891 9.3644 46.4856 9.49375C46.3821 9.64896 46.2269 9.80417 46.0717 9.90764C45.8906 10.037 45.7095 10.1405 45.5285 10.2181C45.3215 10.3215 45.0887 10.3733 44.8818 10.3733ZM45.8906 7.94164C45.8389 7.70882 45.7095 7.50188 45.5285 7.34666C45.3474 7.19145 45.1146 7.11385 44.8559 7.11385C44.6231 7.11385 44.3903 7.19145 44.1833 7.34666C44.0022 7.50188 43.8729 7.70882 43.8212 7.94164H45.8906Z" fill="white"/>
<path d="M47.7014 4.68219H48.762V10.3215H47.7014V4.68219Z" fill="white"/>
<path d="M50.3659 11.796C50.3141 11.796 50.2624 11.796 50.2106 11.796C50.1589 11.796 50.133 11.796 50.1072 11.7701C50.0813 11.7701 50.0296 11.7443 50.0037 11.7443V10.8906C50.1848 10.8906 50.3917 10.8389 50.5469 10.7354C50.6763 10.6319 50.7797 10.5026 50.8315 10.3474L50.935 10.1146L49.3052 6.18256H50.4176L51.4782 8.87287L52.4612 6.18256H53.5735C53.2631 6.93274 53.0044 7.60532 52.7458 8.22616C52.6423 8.48485 52.5388 8.74353 52.4353 9.00222C52.3319 9.2609 52.2542 9.49372 52.1508 9.70067C52.0732 9.90761 51.9956 10.0887 51.9438 10.218C51.8921 10.3474 51.8662 10.425 51.8404 10.4508C51.7628 10.6578 51.6593 10.8647 51.5299 11.0717C51.4523 11.2269 51.323 11.3562 51.1936 11.4856C51.0902 11.5891 50.9608 11.6667 50.8056 11.7184C50.6763 11.7701 50.5211 11.796 50.3659 11.796Z" fill="white"/>
<path d="M15.9609 4.13895C15.3142 4.13895 14.7192 4.32003 14.1759 4.65632C13.6586 4.99261 13.2447 5.4841 12.986 6.05321C12.7532 6.62232 12.6756 7.24316 12.8049 7.83813C12.9343 8.43311 13.2447 9.00221 13.6845 9.44198C14.1242 9.88174 14.6933 10.1663 15.3142 10.2956C15.935 10.425 16.5817 10.3474 17.1767 10.1146C17.7717 9.88174 18.2632 9.49371 18.6253 8.97634C18.9875 8.45898 19.1686 7.864 19.1686 7.24316C19.1686 6.82926 19.091 6.44124 18.9357 6.05321C18.7805 5.66518 18.5477 5.32889 18.2373 5.04434C17.9269 4.75979 17.5906 4.52697 17.2026 4.37176C16.8145 4.21655 16.3748 4.13895 15.9609 4.13895ZM15.9609 9.28676C15.547 9.28676 15.1331 9.18329 14.7968 8.95048C14.4605 8.74353 14.176 8.40724 14.0207 8.04508C13.8655 7.68292 13.8138 7.26903 13.8914 6.881C13.969 6.49297 14.176 6.13082 14.4605 5.84626C14.7451 5.56171 15.1331 5.35476 15.5211 5.27716C15.935 5.19955 16.3489 5.22542 16.7369 5.38063C17.125 5.53584 17.4612 5.79453 17.6941 6.13082C17.9269 6.46711 18.0562 6.85513 18.0562 7.26903V7.2949C18.0562 7.83813 17.8493 8.3555 17.4612 8.71766C17.0473 9.05395 16.5041 9.28676 15.9609 9.28676Z" fill="white"/>
</svg>
