<svg width="19" height="19" viewBox="0 0 19 19" fill="none" xmlns="http://www.w3.org/2000/svg">
<path d="M9.60002 16.8C13.8526 16.8 17.3 13.3526 17.3 9.10003C17.3 4.84743 13.8526 1.40002 9.60002 1.40002C5.34743 1.40002 1.90002 4.84743 1.90002 9.10003C1.90002 13.3526 5.34743 16.8 9.60002 16.8Z" fill="white"/>
<path d="M9.3 0C4.1 0 0 4.2 0 9.3C0 14.4 4.2 18.6 9.3 18.6C14.4 18.6 18.6 14.4 18.6 9.3C18.6 4.2 14.5 0 9.3 0ZM13.6 7.3C13.6 7.4 13.6 7.5 13.6 7.6C13.6 10.4 11.4 13.7 7.5 13.7C6.3 13.7 5.2 13.3 4.2 12.7C4.4 12.7 4.5 12.7 4.7 12.7C5.7 12.7 6.59999 12.4 7.39999 11.8C6.49999 11.8 5.69999 11.2 5.39999 10.3C5.49999 10.3 5.7 10.3 5.8 10.3C6 10.3 6.19999 10.3 6.39999 10.2C5.39999 10 4.7 9.1 4.7 8.1C5 8.3 5.3 8.4 5.7 8.4C5.1 8 4.7 7.4 4.7 6.6C4.7 6.2 4.8 5.8 5 5.5C6.1 6.8 7.59999 7.6 9.39999 7.7C9.39999 7.5 9.3 7.4 9.3 7.2C9.3 6 10.3 5.1 11.4 5.1C12 5.1 12.6 5.4 13 5.8C13.5 5.7 13.9 5.5 14.4 5.3C14.2 5.8 13.9 6.2 13.5 6.5C13.9 6.4 14.3 6.3 14.7 6.2C14.3 6.6 14 7 13.6 7.3Z" fill="#3A3A3A"/>
</svg>
