<svg width="17" height="16" viewBox="0 0 17 16" fill="none" xmlns="http://www.w3.org/2000/svg">
<path d="M8.79964 13.9C10.8996 13.9 12.5996 12.2 12.5996 10.1C12.5996 7.99998 10.8996 6.29999 8.79964 6.29999C6.69964 6.29999 4.99963 7.99998 4.99963 10.1C4.99963 12.2 6.69964 13.9 8.79964 13.9ZM6.29964 12C6.59964 11.9 6.99963 11.8 7.39963 11.7C7.49963 12.1 7.49964 12.4 7.59964 12.7C7.69964 12.9 7.69964 13 7.79964 13.1C7.19964 12.9 6.69964 12.5 6.29964 12ZM5.69963 10.1C5.69963 9.59998 5.79963 9.19999 5.99963 8.79999C6.39963 8.99999 6.89963 9.09998 7.39963 9.19998C7.39963 9.49998 7.39963 9.79998 7.39963 10.1C7.39963 10.4 7.39963 10.7 7.39963 11C6.89963 11.1 6.39963 11.2 5.99963 11.4C5.79963 11 5.69963 10.6 5.69963 10.1ZM8.79964 6.99998C8.89964 6.99998 9.09964 7.19999 9.29964 7.79999C9.39964 7.99999 9.39963 8.29998 9.49963 8.59998C9.29963 8.59998 8.99964 8.59998 8.79964 8.59998C8.59964 8.59998 8.29964 8.59998 8.09964 8.59998C8.19964 8.29998 8.19964 7.99999 8.29964 7.79999C8.59964 7.09999 8.79964 6.99998 8.79964 6.99998ZM8.79964 9.29999C9.09964 9.29999 9.29964 9.29999 9.59964 9.29999C9.59964 9.59999 9.59964 9.89998 9.59964 10.1C9.59964 10.4 9.59964 10.7 9.59964 10.9C9.29964 10.9 9.09964 10.9 8.79964 10.9C8.49964 10.9 8.29963 10.9 7.99963 10.9C7.99963 10.6 7.99963 10.3 7.99963 10.1C7.99963 9.79998 7.99963 9.49999 7.99963 9.29999C8.29963 9.29999 8.59964 9.29999 8.79964 9.29999ZM11.9996 10.1C11.9996 10.6 11.8996 11 11.6996 11.4C11.2996 11.2 10.7996 11.1 10.2996 11C10.2996 10.7 10.2996 10.4 10.2996 10.1C10.2996 9.79998 10.2996 9.49998 10.2996 9.19998C10.7996 9.09998 11.2996 8.99999 11.6996 8.79999C11.8996 9.19999 11.9996 9.59998 11.9996 10.1ZM8.79964 13.2C8.69964 13.2 8.49964 13 8.29964 12.4C8.19964 12.2 8.19964 11.9 8.09964 11.6C8.29964 11.6 8.59964 11.6 8.79964 11.6C8.99964 11.6 9.29963 11.6 9.49963 11.6C9.39963 11.9 9.39964 12.2 9.29964 12.4C9.09964 13.1 8.89964 13.2 8.79964 13.2ZM9.79964 13.1C9.89964 13 9.89963 12.8 9.99963 12.7C10.0996 12.4 10.1996 12.1 10.1996 11.7C10.5996 11.8 10.9996 11.9 11.2996 12C10.9996 12.5 10.4996 12.9 9.79964 13.1ZM11.3996 8.19998C11.0996 8.29998 10.6996 8.39998 10.2996 8.49998C10.1996 8.09998 10.1996 7.79998 10.0996 7.49998C9.99964 7.29998 9.99963 7.19998 9.89963 7.09998C10.4996 7.29998 10.9996 7.69998 11.3996 8.19998ZM7.79964 7.09998C7.69964 7.19998 7.69964 7.39998 7.59964 7.49998C7.49964 7.79998 7.39963 8.09998 7.39963 8.49998C6.99963 8.39998 6.59964 8.29998 6.29964 8.19998C6.69964 7.69998 7.19964 7.29998 7.79964 7.09998Z" fill="#1C1C1C" stroke="#FFD400" stroke-width="0.177" stroke-miterlimit="10"/>
<path d="M8.69971 16C13.118 16 16.6997 12.4183 16.6997 8C16.6997 3.58172 13.118 0 8.69971 0C4.28143 0 0.699707 3.58172 0.699707 8C0.699707 12.4183 4.28143 16 8.69971 16Z" fill="#FFD400"/>
<path d="M8.6996 12.5C11.1996 12.5 13.2996 10.5 13.2996 7.89999C13.2996 5.39999 11.2996 3.29999 8.6996 3.29999C6.1996 3.29999 4.09961 5.29999 4.09961 7.89999C4.19961 10.5 6.1996 12.5 8.6996 12.5ZM5.6996 10.2C6.0996 10.1 6.4996 9.89999 6.9996 9.89999C7.0996 10.3 7.19961 10.7 7.29961 11C7.39961 11.2 7.3996 11.3 7.4996 11.5C6.7996 11.3 6.1996 10.8 5.6996 10.2ZM4.9996 7.99998C4.9996 7.49998 5.09961 6.89998 5.29961 6.49998C5.69961 6.69998 6.2996 6.79999 6.8996 6.89999C6.8996 7.29999 6.8996 7.59998 6.8996 7.99998C6.8996 8.39998 6.8996 8.69998 6.8996 9.09998C6.2996 9.19998 5.69961 9.29998 5.29961 9.49998C5.09961 9.09998 4.9996 8.49998 4.9996 7.99998ZM8.6996 4.29999C8.7996 4.29999 8.99961 4.49998 9.29961 5.19998C9.39961 5.49998 9.4996 5.79998 9.4996 6.19998C9.1996 6.19998 8.9996 6.19998 8.6996 6.19998C8.3996 6.19998 8.0996 6.19998 7.8996 6.19998C7.9996 5.79998 7.99961 5.49998 8.09961 5.19998C8.39961 4.49998 8.5996 4.29999 8.6996 4.29999ZM8.6996 6.99998C8.9996 6.99998 9.29961 6.99998 9.59961 6.99998C9.59961 7.29998 9.59961 7.69998 9.59961 7.99998C9.59961 8.29998 9.59961 8.69998 9.59961 8.99998C9.29961 8.99998 8.9996 8.99998 8.6996 8.99998C8.3996 8.99998 8.09961 8.99998 7.79961 8.99998C7.79961 8.69998 7.79961 8.29998 7.79961 7.99998C7.79961 7.69998 7.79961 7.29998 7.79961 6.99998C8.09961 6.99998 8.3996 6.99998 8.6996 6.99998ZM12.3996 7.99998C12.3996 8.49998 12.2996 9.09998 12.0996 9.49998C11.6996 9.29998 11.0996 9.19998 10.4996 9.09998C10.4996 8.69998 10.4996 8.39998 10.4996 7.99998C10.4996 7.59998 10.4996 7.29999 10.4996 6.89999C11.0996 6.79999 11.6996 6.69998 12.0996 6.49998C12.2996 6.89998 12.3996 7.39998 12.3996 7.99998ZM8.6996 11.7C8.5996 11.7 8.39961 11.5 8.09961 10.8C7.99961 10.5 7.8996 10.2 7.8996 9.79999C8.1996 9.79999 8.3996 9.79999 8.6996 9.79999C8.9996 9.79999 9.2996 9.79999 9.4996 9.79999C9.3996 10.2 9.39961 10.5 9.29961 10.8C9.09961 11.5 8.7996 11.7 8.6996 11.7ZM9.8996 11.5C9.9996 11.4 9.99961 11.2 10.0996 11C10.1996 10.7 10.2996 10.3 10.3996 9.89999C10.8996 9.99999 11.3996 10.1 11.6996 10.2C11.1996 10.8 10.5996 11.3 9.8996 11.5ZM11.6996 5.69998C11.2996 5.79998 10.8996 5.99998 10.3996 5.99998C10.2996 5.59998 10.1996 5.19999 10.0996 4.89999C9.99961 4.69999 9.9996 4.59999 9.8996 4.39999C10.5996 4.69999 11.1996 5.19998 11.6996 5.69998ZM7.4996 4.49998C7.3996 4.59998 7.39961 4.79998 7.29961 4.99998C7.19961 5.29998 7.0996 5.69998 6.9996 6.09998C6.4996 5.99998 5.9996 5.89999 5.6996 5.79999C6.1996 5.19999 6.7996 4.69998 7.4996 4.49998Z" fill="#1C1C1C" stroke="#FFD400" stroke-width="0.2097" stroke-miterlimit="10"/>
</svg>
