<svg width="17" height="16" viewBox="0 0 17 16" fill="none" xmlns="http://www.w3.org/2000/svg">
<path d="M8.09961 16C12.5179 16 16.0996 12.4183 16.0996 8C16.0996 3.58172 12.5179 0 8.09961 0C3.68133 0 0.0996094 3.58172 0.0996094 8C0.0996094 12.4183 3.68133 16 8.09961 16Z" fill="#FFD400"/>
<path d="M12.2997 4.69995H4.29968L8.29968 7.99994L12.2997 4.69995Z" fill="black" stroke="#FFD400" stroke-width="0.1528" stroke-miterlimit="10"/>
<path d="M8.49963 8.69994C8.39963 8.79994 8.19963 8.79994 8.09963 8.69994L3.99963 5.29993V10.5999C3.99963 10.7999 4.09963 10.8999 4.29963 10.8999H12.2996C12.4996 10.8999 12.5996 10.7999 12.5996 10.5999V5.29993L8.49963 8.69994Z" fill="black" stroke="#FFD400" stroke-width="0.1528" stroke-miterlimit="10"/>
</svg>
