<svg width="17" height="16" viewBox="0 0 17 16" fill="none" xmlns="http://www.w3.org/2000/svg">
<path d="M9.3996 4.5C7.8996 4.5 6.59961 5.8 6.59961 7.3C6.59961 7.8 6.6996 8.20001 6.8996 8.60001L9.1996 12.8C9.1996 12.9 9.2996 12.9 9.3996 12.9C9.4996 12.9 9.49961 12.9 9.59961 12.8L11.8996 8.60001C12.0996 8.20001 12.1996 7.7 12.1996 7.3C12.1996 5.8 10.8996 4.5 9.3996 4.5ZM9.3996 8.70001C8.5996 8.70001 7.9996 8.1 7.9996 7.3C7.9996 6.5 8.5996 5.90001 9.3996 5.90001C10.1996 5.90001 10.7996 6.5 10.7996 7.3C10.7996 8.1 10.1996 8.70001 9.3996 8.70001Z" fill="#1C1C1C"/>
<path d="M8.69971 16C13.118 16 16.6997 12.4183 16.6997 8C16.6997 3.58172 13.118 0 8.69971 0C4.28143 0 0.699707 3.58172 0.699707 8C0.699707 12.4183 4.28143 16 8.69971 16Z" fill="#FFD400"/>
<path d="M8.69966 3.09998C6.89966 3.09998 5.39966 4.59998 5.39966 6.39998C5.39966 6.89998 5.49967 7.49997 5.79967 7.99997L8.49966 12.9C8.49966 13 8.59966 13 8.69966 13C8.79966 13 8.79966 13 8.89966 12.9L11.5997 7.99997C11.8997 7.49997 11.9997 6.99998 11.9997 6.39998C11.9997 4.49998 10.4997 3.09998 8.69966 3.09998ZM8.69966 7.99997C7.79966 7.99997 7.09967 7.29998 7.09967 6.39998C7.09967 5.49998 7.79966 4.79997 8.69966 4.79997C9.59966 4.79997 10.2997 5.49998 10.2997 6.39998C10.2997 7.19998 9.59966 7.99997 8.69966 7.99997Z" fill="#1C1C1C"/>
</svg>
