<svg width="17" height="17" viewBox="0 0 17 17" fill="none" xmlns="http://www.w3.org/2000/svg">
<path d="M8.09961 16.1C12.5179 16.1 16.0996 12.5183 16.0996 8.09998C16.0996 3.6817 12.5179 0.0999756 8.09961 0.0999756C3.68133 0.0999756 0.0996094 3.6817 0.0996094 8.09998C0.0996094 12.5183 3.68133 16.1 8.09961 16.1Z" fill="#FFD400"/>
<path d="M10.3997 2.70001H6.09966C5.69966 2.70001 5.39966 3.00002 5.39966 3.40002V12.1C5.39966 12.5 5.69966 12.8 6.09966 12.8H10.3997C10.7997 12.8 11.0997 12.5 11.0997 12.1V3.40002C11.0997 3.10002 10.7997 2.70001 10.3997 2.70001ZM7.19966 3.20001H9.29966C9.39966 3.20001 9.39966 3.30002 9.39966 3.40002C9.39966 3.50002 9.39966 3.60001 9.29966 3.60001H7.19966C7.09966 3.60001 7.09966 3.50002 7.09966 3.40002C7.09966 3.30002 7.09966 3.20001 7.19966 3.20001ZM8.19966 12.2C7.89966 12.2 7.69966 12 7.69966 11.7C7.69966 11.4 7.89966 11.2 8.19966 11.2C8.49966 11.2 8.69966 11.4 8.69966 11.7C8.69966 12 8.49966 12.2 8.19966 12.2ZM10.5997 10.5H5.89966V4.00002H10.4997C10.5997 4.00002 10.5997 10.5 10.5997 10.5Z" fill="black"/>
</svg>
