<svg width="16" height="16" viewBox="0 0 16 16" fill="none" xmlns="http://www.w3.org/2000/svg">
<path d="M10.2998 9.99994C10.1998 9.89994 9.99986 9.89994 9.89986 9.99994L9.19984 10.7C8.99984 10.9 8.69985 10.8999 8.49985 10.7999C8.09985 10.4999 7.79986 10.2 7.39986 9.89995C7.09986 9.59995 6.79985 9.29995 6.59985 8.89995C6.39985 8.69995 6.49984 8.39995 6.69984 8.19995L7.39986 7.49994C7.49986 7.39994 7.49986 7.19995 7.39986 7.09995L6.19984 5.89995C6.09984 5.79995 5.89985 5.79995 5.79985 5.89995L5.39986 6.29995C4.99986 6.69995 4.79985 7.39994 4.99985 7.99994C5.19985 8.49994 5.39984 8.99995 5.69984 9.39995C5.99984 9.79995 6.29985 10.1999 6.59985 10.4999C6.99985 10.8999 7.39986 11.1999 7.89986 11.4999C8.39986 11.7999 8.89985 12.1 9.49985 12.2C10.0998 12.3 10.6999 12.1999 11.0999 11.7999L11.3999 11.4999C11.4999 11.3999 11.4999 11.1999 11.3999 11.0999L10.2998 9.99994Z" fill="#1C1C1C"/>
<path d="M8 16C12.4183 16 16 12.4183 16 7.99999C16 3.58171 12.4183 0 8 0C3.58172 0 0 3.58171 0 7.99999C0 12.4183 3.58172 16 8 16Z" fill="#FFD400"/>
<path d="M10.3999 9.09995C10.2999 8.99995 10.0999 8.99995 9.9999 9.09995L9.1999 9.89995C8.9999 10.1 8.59991 10.1999 8.39991 9.99994C7.99991 9.69994 7.49991 9.29995 7.09991 8.89995C6.79991 8.59995 6.39991 8.19995 6.09991 7.79995C5.89991 7.49995 5.8999 7.19994 6.1999 6.99994L6.9999 6.19995C7.0999 6.09995 7.0999 5.89995 6.9999 5.79995L5.59991 4.39995C5.49991 4.29995 5.2999 4.29995 5.1999 4.39995L4.79991 4.79995C4.29991 5.29995 4.09991 6.09995 4.29991 6.79995C4.49991 7.39995 4.79991 7.99994 5.09991 8.49994C5.39991 8.99994 5.7999 9.39994 6.1999 9.79994C6.5999 10.1999 7.0999 10.5999 7.6999 10.9999C8.2999 11.3999 8.89991 11.6999 9.59991 11.7999C10.2999 11.9999 10.8999 11.7999 11.3999 11.2999L11.7999 10.9C11.8999 10.8 11.8999 10.5999 11.7999 10.4999L10.3999 9.09995Z" fill="#1C1C1C"/>
</svg>
