<svg width="17" height="16" viewBox="0 0 17 16" fill="none" xmlns="http://www.w3.org/2000/svg">
<path d="M8.09961 16C12.5179 16 16.0996 12.4183 16.0996 7.99999C16.0996 3.58171 12.5179 0 8.09961 0C3.68133 0 0.0996094 3.58171 0.0996094 7.99999C0.0996094 12.4183 3.68133 16 8.09961 16Z" fill="#FFD400"/>
<path d="M12.2997 8.90001C12.3997 8.60001 12.3997 8.3 12.3997 8C12.3997 7.4 12.2997 6.90001 12.0997 6.40001C11.8997 5.90001 11.5997 5.50001 11.1997 5.10001C10.7997 4.70001 10.3997 4.40001 9.89971 4.20001C9.39971 4.00001 8.89971 3.90001 8.29971 3.90001C7.99971 3.90001 7.69971 3.9 7.39971 4C6.99971 3.7 6.49971 3.5 5.99971 3.5C5.39971 3.5 4.89971 3.70001 4.39971 4.20001C3.99971 4.60001 3.69971 5.2 3.69971 5.8C3.69971 6.3 3.89971 6.80001 4.19971 7.20001C4.09971 7.50001 4.09971 7.80001 4.09971 8.10001C4.09971 8.70001 4.19971 9.20001 4.39971 9.70001C4.59971 10.2 4.89971 10.6 5.29971 11C5.69971 11.4 6.09971 11.7 6.59971 11.9C7.09971 12.1 7.59971 12.2 8.19971 12.2C8.49971 12.2 8.79971 12.2 9.09971 12.1C9.49971 12.4 9.99971 12.6 10.4997 12.6C11.0997 12.6 11.5997 12.4 12.0997 11.9C12.4997 11.5 12.7997 10.9 12.7997 10.3C12.7997 9.8 12.5997 9.30001 12.2997 8.90001ZM10.4997 9.8C10.3997 10 10.1997 10.2 9.99971 10.3C9.79971 10.4 9.49971 10.5 9.29971 10.6C8.99971 10.7 8.79971 10.7 8.49971 10.7C7.79971 10.7 7.29971 10.6 6.79971 10.3C6.19971 10.1 5.99971 9.80001 5.99971 9.40001C5.99971 9.20001 5.99971 9.1 6.09971 9C6.19971 8.9 6.29971 8.8 6.49971 8.8C6.59971 8.8 6.69971 8.80001 6.79971 8.90001C6.89971 9.00001 6.99971 9.00001 7.09971 9.10001C7.19971 9.20001 7.29971 9.30001 7.39971 9.40001C7.49971 9.50001 7.59971 9.60001 7.79971 9.60001C7.99971 9.70001 8.09971 9.70001 8.29971 9.70001C8.59971 9.70001 8.79971 9.70001 8.89971 9.60001C9.09971 9.50001 9.09971 9.40001 9.09971 9.20001C9.09971 9.00001 8.99971 8.90001 8.89971 8.90001C8.79971 8.80001 8.59971 8.80001 8.19971 8.70001L7.29971 8.5C7.09971 8.4 6.89971 8.4 6.69971 8.3C6.49971 8.2 6.39971 8.1 6.19971 8C6.09971 7.9 5.89971 7.70001 5.89971 7.60001C5.99971 7.30001 5.99971 7.10001 5.99971 6.90001C5.99971 6.60001 6.09971 6.40001 6.19971 6.20001C6.29971 6.00001 6.49971 5.80001 6.69971 5.70001C6.89971 5.60001 7.09971 5.50001 7.39971 5.40001C7.59971 5.30001 7.89971 5.3 8.19971 5.3C8.59971 5.3 8.89971 5.30001 9.29971 5.40001C9.59971 5.50001 9.89971 5.6 10.0997 5.8C10.2997 6 10.3997 6.20001 10.3997 6.40001C10.3997 6.60001 10.2997 6.7 10.1997 6.8C10.0997 6.9 9.89971 7 9.79971 7C9.69971 7 9.59971 7.00001 9.49971 6.90001C9.39971 6.90001 9.29971 6.80001 9.29971 6.70001C9.19971 6.60001 9.19971 6.6 9.09971 6.5C8.99971 6.4 8.89971 6.4 8.79971 6.3C8.69971 6.3 8.49971 6.20001 8.39971 6.20001C7.79971 6.20001 7.59971 6.30001 7.59971 6.60001C7.59971 6.70001 7.59971 6.7 7.59971 6.8C7.59971 6.9 7.69971 6.90001 7.69971 6.90001C7.69971 6.90001 7.79971 7 7.89971 7C7.99971 7 7.99971 7.10001 8.09971 7.10001C8.19971 7.10001 8.19971 7.10001 8.39971 7.20001L8.99971 7.3C9.19971 7.3 9.39971 7.40001 9.49971 7.40001C9.59971 7.40001 9.79971 7.50001 9.99971 7.60001C10.1997 7.70001 10.2997 7.80001 10.3997 7.90001C10.4997 8.00001 10.5997 8.1 10.6997 8.3C10.7997 8.5 10.7997 8.6 10.7997 8.8C10.5997 9.3 10.5997 9.6 10.4997 9.8Z" fill="black"/>
</svg>
