<svg width="20" height="19" viewBox="0 0 20 19" fill="none" xmlns="http://www.w3.org/2000/svg">
<path d="M9.49957 16.8C13.7522 16.8 17.1996 13.3526 17.1996 9.09996C17.1996 4.84737 13.7522 1.39996 9.49957 1.39996C5.24698 1.39996 1.79956 4.84737 1.79956 9.09996C1.79956 13.3526 5.24698 16.8 9.49957 16.8Z" fill="white"/>
<path d="M8.69958 11.2L11.6996 9.49999L8.69958 7.79999V11.2Z" fill="#3A3A3A"/>
<path d="M9.8996 0.0999756C4.6996 0.0999756 0.599609 4.29997 0.599609 9.39997C0.599609 14.5 4.7996 18.7 9.8996 18.7C14.9996 18.7 19.1996 14.5 19.1996 9.39997C19.1996 4.29997 14.9996 0.0999756 9.8996 0.0999756ZM15.6996 9.49998C15.6996 9.49998 15.6996 11.4 15.4996 12.3C15.3996 12.8 14.9996 13.2 14.4996 13.3C13.5996 13.5 9.8996 13.5 9.8996 13.5C9.8996 13.5 6.29959 13.5 5.29959 13.3C4.79959 13.2 4.39959 12.8 4.29959 12.3C4.09959 11.4 4.09961 9.49998 4.09961 9.49998C4.09961 9.49998 4.09959 7.59997 4.29959 6.69997C4.39959 6.19997 4.79959 5.79997 5.29959 5.69997C6.19959 5.49997 9.8996 5.49998 9.8996 5.49998C9.8996 5.49998 13.5996 5.49997 14.4996 5.69997C14.9996 5.79997 15.3996 6.19997 15.4996 6.69997C15.6996 7.59997 15.6996 9.49998 15.6996 9.49998Z" fill="#3A3A3A"/>
</svg>
